0
SECTION
2
HEADER
9
$INSUNITS
70
4
9
$ACADVER
1
AC1014
9
$HANDSEED
5
FFFF
0
ENDSEC
0
SECTION
2
TABLES
0
TABLE
2
VPORT
5
8
100
AcDbSymbolTable
0
ENDTAB
0
TABLE
2
LTYPE
5
5
100
AcDbSymbolTable
0
LTYPE
5
14
100
AcDbSymbolTableRecord
100
AcDbLinetypeTableRecord
2
BYBLOCK
70
0
0
LTYPE
5
15
100
AcDbSymbolTableRecord
100
AcDbLinetypeTableRecord
2
BYLAYER
70
0
0
ENDTAB
0
TABLE
2
LAYER
5
2
100
AcDbSymbolTable
70
2
0
LAYER
5
50
100
AcDbSymbolTableRecord
100
AcDbLayerTableRecord
2
0
70
0
6
CONTINUOUS
0
ENDTAB
0
TABLE
2
STYLE
5
3
100
AcDbSymbolTable
70
1
0
STYLE
5
11
100
AcDbSymbolTableRecord
100
AcDbTextStyleTableRecord
2
STANDARD
70
0
0
ENDTAB
0
TABLE
2
VIEW
5
6
100
AcDbSymbolTable
70
0
0
ENDTAB
0
TABLE
2
UCS
5
7
100
AcDbSymbolTable
70
0
0
ENDTAB
0
TABLE
2
APPID
5
9
100
AcDbSymbolTable
70
2
0
APPID
5
12
100
AcDbSymbolTableRecord
100
AcDbRegAppTableRecord
2
ACAD
70
0
0
ENDTAB
0
TABLE
2
DIMSTYLE
5
A
100
AcDbSymbolTable
70
1
0
ENDTAB
0
TABLE
2
BLOCK_RECORD
5
1
100
AcDbSymbolTable
70
1
0
BLOCK_RECORD
5
1F
100
AcDbSymbolTableRecord
100
AcDbBlockTableRecord
2
*MODEL_SPACE
0
BLOCK_RECORD
5
1B
100
AcDbSymbolTableRecord
100
AcDbBlockTableRecord
2
*PAPER_SPACE
0
ENDTAB
0
ENDSEC
0
SECTION
2
BLOCKS
0
BLOCK
5
20
100
AcDbEntity
100
AcDbBlockBegin
2
*MODEL_SPACE
0
ENDBLK
5
21
100
AcDbEntity
100
AcDbBlockEnd
0
BLOCK
5
1C
100
AcDbEntity
100
AcDbBlockBegin
2
*PAPER_SPACE
0
ENDBLK
5
1D
100
AcDbEntity
100
AcDbBlockEnd
0
ENDSEC
0
SECTION
2
ENTITIES
0
CIRCLE
5
100
100
AcDbEntity
8
0
100
AcDbCircle
10
121.04999999999998
20
14
30
0
40
1.5
0
CIRCLE
5
101
100
AcDbEntity
8
0
100
AcDbCircle
10
131.04999999999998
20
14
30
0
40
1.5000000000000004
0
LWPOLYLINE
5
102
100
AcDbEntity
8
0
100
AcDbPolyline
90
4
70
1
43
0.0
10
136.04999999999998
20
10
10
116.04999999999998
20
10
10
116.04999999999998
20
-30.5
10
136.04999999999998
20
-30.5
0
LINE
5
103
100
AcDbEntity
8
0
100
AcDbLine
10
126.8
20
-27.499999999999204
30
0
11
126.8
21
-33.499999999999204
31
0
0
LINE
5
104
100
AcDbEntity
8
0
100
AcDbLine
10
126.8
20
-33.499999999999204
30
0
11
125.30000000000001
21
-27.499999999999204
31
0
0
LINE
5
105
100
AcDbEntity
8
0
100
AcDbLine
10
125.30000000000001
20
-27.499999999999204
30
0
11
126.8
21
-27.499999999999204
31
0
0
LINE
5
106
100
AcDbEntity
8
0
100
AcDbLine
10
125.30000000000001
20
-33.499999999999204
30
0
11
125.30000000000001
21
-27.499999999999204
31
0
0
LINE
5
107
100
AcDbEntity
8
0
100
AcDbLine
10
126.8
20
-33.499999999999204
30
0
11
125.30000000000001
21
-33.499999999999204
31
0
0
CIRCLE
5
108
100
AcDbEntity
8
0
100
AcDbCircle
10
131.04999999999998
20
-34.5
30
0
40
1.5000000000000002
0
LINE
5
109
100
AcDbEntity
8
0
100
AcDbLine
10
126.79999999999987
20
6.9999999999997549
30
0
11
126.79999999999987
21
12.999999999999757
31
0
0
LINE
5
110
100
AcDbEntity
8
0
100
AcDbLine
10
126.79999999999987
20
12.999999999999757
30
0
11
125.29999999999988
21
12.999999999999757
31
0
0
LINE
5
111
100
AcDbEntity
8
0
100
AcDbLine
10
125.29999999999988
20
12.999999999999757
30
0
11
126.79999999999987
21
6.9999999999997549
31
0
0
LINE
5
112
100
AcDbEntity
8
0
100
AcDbLine
10
125.29999999999988
20
12.999999999999757
30
0
11
125.29999999999988
21
6.9999999999997549
31
0
0
LINE
5
113
100
AcDbEntity
8
0
100
AcDbLine
10
125.29999999999988
20
6.9999999999997549
30
0
11
126.79999999999987
21
6.9999999999997549
31
0
0
CIRCLE
5
114
100
AcDbEntity
8
0
100
AcDbCircle
10
121.04999999999998
20
-34.5
30
0
40
1.4999999999999996
0
LWPOLYLINE
5
115
100
AcDbEntity
8
0
100
AcDbPolyline
90
6
70
1
43
0.0
10
184.41700093235789
20
-0.1676416557059035
10
97.149873337201669
20
-151.18392700695773
10
-77.267629959720452
20
-151.11652026988031
10
-164.41800566148612
20
-0.032828181551085578
10
-77.150878066329909
20
150.9834571697007
10
97.266625230592112
20
150.91605043262328
0
CIRCLE
5
116
100
AcDbEntity
8
0
100
AcDbCircle
10
0
20
0
30
0
40
1.5000000000000002
0
ARC
5
117
100
AcDbEntity
8
0
100
AcDbCircle
10
126.04999999999998
20
0
30
0
40
44
100
AcDbArc
50
240.31977453435147
51
241.74847016684518
0
LINE
5
118
100
AcDbEntity
8
0
100
AcDbLine
10
98.788606443188257
20
-40.437644001963235
30
0
11
100.63543822189575
21
-41.682701897772588
31
0
0
LINE
5
119
100
AcDbEntity
8
0
100
AcDbLine
10
103.84267955080743
20
33.027790093599592
30
0
11
103.84267955080743
21
33.027790093599592
31
0
0
LINE
5
120
100
AcDbEntity
8
0
100
AcDbLine
10
103.80233616903539
20
-33.000628085907543
30
0
11
103.80233616903539
21
-33.000628085907543
31
0
0
ARC
5
121
100
AcDbEntity
8
0
100
AcDbCircle
10
126.04999999999998
20
0
30
0
40
36
100
AcDbArc
50
129.65538107872416
51
134.21919058729017
0
ARC
5
122
100
AcDbEntity
8
0
100
AcDbCircle
10
126.04999999999998
20
0
30
0
40
36.000000000000007
100
AcDbArc
50
225.78080941270974
51
230.27460345572604
0
ARC
5
123
100
AcDbEntity
8
0
100
AcDbCircle
10
126.04999999999998
20
0
30
0
40
44.000000000000021
100
AcDbArc
50
129.65538107872416
51
147.1442587154452
0
ARC
5
124
100
AcDbEntity
8
0
100
AcDbCircle
10
126.04999999999998
20
0
30
0
40
44.000000000000021
100
AcDbArc
50
212.85574128455502
51
230.27460345572604
0
ARC
5
125
100
AcDbEntity
8
0
100
AcDbCircle
10
100.52326175095631
20
30.795870410897823
30
0
40
3.9999999999999987
100
AcDbArc
50
33.916210601457273
51
129.65538107872428
0
ARC
5
126
100
AcDbEntity
8
0
100
AcDbCircle
10
100.52326175095627
20
30.79587041089782
30
0
40
4.0000000000000444
100
AcDbArc
50
-50.344618921275355
51
33.916210601456989
0
ARC
5
127
100
AcDbEntity
8
0
100
AcDbCircle
10
100.48564825367117
20
-30.764653740778147
30
0
40
3.9999999999999774
100
AcDbArc
50
-33.986226067007223
51
50.274603455726123
0
ARC
5
128
100
AcDbEntity
8
0
100
AcDbCircle
10
100.48564825367116
20
-30.764653740778158
30
0
40
3.9999999999999996
100
AcDbArc
50
230.27460345572584
51
326.01377393299299
0
LWPOLYLINE
5
129
100
AcDbEntity
8
0
100
AcDbPolyline
90
8
70
1
43
0.0
10
26.604591589854458
20
97.357835875378015
10
22.246143997228771
20
81.091888017572771
42
0.39692292687008379
10
25.172169793259918
20
75.657333371585963
42
-0.10155029725440287
10
52.935087785751726
20
59.628405195131293
42
0.3969229268700819
10
59.104563065446662
20
59.811669846633116
10
71.012063330626219
20
71.719170111812673
42
0.42878742141915349
10
70.850719853077877
20
78.236679353744762
42
0.1065498508834344
10
32.329591901541654
20
100.47686294605225
42
0.42878742141915349
0
LWPOLYLINE
5
130
100
AcDbEntity
8
0
100
AcDbPolyline
90
8
70
1
43
0.0
10
18.355510053650988
20
66.571844466488344
10
6.160782672028196
20
21.060502293820939
42
0.35000111041852833
10
8.4059591122631776
20
15.916653272687689
42
-0.01885538179488001
10
9.5812465212446796
20
15.23810077073704
42
0.35000111041852827
10
15.158538666895311
20
15.865645448081827
10
48.475153457940053
20
49.182260239126492
42
0.43554609245890352
10
48.237049280315638
20
55.767708413815939
42
0.095043975940548822
10
24.177727557050112
20
69.658364287263154
42
0.43554609245890563
0
LWPOLYLINE
5
131
100
AcDbEntity
8
0
100
AcDbPolyline
90
8
70
1
43
0.0
10
-70.850719853077763
20
78.236679353744847
42
-0.10654985088343434
10
-32.329591901541534
20
100.47686294605234
42
-0.42878742141915482
10
-26.604591589854294
20
97.357835875378044
10
-22.246143997228643
20
81.091888017572828
42
-0.39692292687008146
10
-25.172169793259826
20
75.65733337158602
42
0.10155029725440291
10
-52.935087785751648
20
59.628405195131364
42
-0.39692292687008335
10
-59.104563065446541
20
59.811669846633208
10
-71.012063330626106
20
71.719170111812815
42
-0.42878742141915394
0
LWPOLYLINE
5
132
100
AcDbEntity
8
0
100
AcDbPolyline
90
8
70
1
43
0.0
10
-24.177727557049963
20
69.658364287263211
42
-0.4355460924589033
10
-18.355510053650832
20
66.571844466488415
10
-6.1607826720281462
20
21.060502293820953
42
-0.35000111041852833
10
-8.4059591122631687
20
15.916653272687693
42
0.01885538179488043
10
-9.5812465212446494
20
15.238100770737052
42
-0.35000111041852833
10
-15.158538666895275
20
15.865645448081862
10
-48.475153457939903
20
49.182260239126606
42
-0.43554609245890596
10
-48.237049280315496
20
55.767708413816038
42
-0.095043975940548864
0
LWPOLYLINE
5
133
100
AcDbEntity
8
0
100
AcDbPolyline
90
8
70
1
43
0.0
10
-103.18031175461941
20
-22.240183592307371
42
-0.10654985088343434
10
-103.18031175461942
20
22.240183592307563
42
-0.42878742141915277
10
-97.616654920480528
20
25.638665763565392
10
-81.350707062675298
20
21.280218170939719
42
-0.39692292687008202
10
-78.107257579011559
20
16.02892817645472
42
0.10155029725440291
10
-78.107257579011559
20
-16.028928176454574
42
-0.3969229268700849
10
-81.35070706267534
20
-21.280218170939555
10
-97.616654920480585
20
-25.638665763565172
42
-0.42878742141915466
0
LWPOLYLINE
5
134
100
AcDbEntity
8
0
100
AcDbPolyline
90
8
70
1
43
0.0
10
-72.414776837365608
20
13.890655873447269
42
-0.43554609245890352
10
-66.830663511590899
20
17.389584227361933
10
-21.319321338923459
20
5.1948568457391309
42
-0.35000111041852822
10
-17.987205633507848
20
0.67855250195065664
42
0.018855381794880062
10
-17.987205633507848
20
-0.67855250195061712
42
-0.35000111041852849
10
-21.31932133892348
20
-5.1948568457390731
10
-66.830663511590913
20
-17.38958422736173
42
-0.43554609245890591
10
-72.41477683736565
20
-13.89065587344707
42
-0.095043975940548864
0
LWPOLYLINE
5
135
100
AcDbEntity
8
0
100
AcDbPolyline
90
8
70
1
43
0.0
10
-32.329591901541654
20
-100.47686294605225
42
-0.10654985088343434
10
-70.850719853077905
20
-78.23667935374479
42
-0.42878742141915349
10
-71.012063330626233
20
-71.719170111812673
10
-59.104563065446662
20
-59.811669846633116
42
-0.3969229268700819
10
-52.935087785751733
20
-59.628405195131286
42
0.10155029725440291
10
-25.172169793259936
20
-75.657333371585949
42
-0.39692292687008379
10
-22.246143997228778
20
-81.091888017572771
10
-26.604591589854483
20
-97.357835875378015
42
-0.42878742141915349
0
LWPOLYLINE
5
136
100
AcDbEntity
8
0
100
AcDbPolyline
90
8
70
1
43
0.0
10
-48.237049280315659
20
-55.767708413815939
42
-0.43554609245890352
10
-48.475153457940067
20
-49.182260239126485
10
-15.158538666895314
20
-15.865645448081827
42
-0.35000111041852827
10
-9.5812465212446831
20
-15.238100770737038
42
0.01885538179488043
10
-8.4059591122631971
20
-15.916653272687675
42
-0.35000111041852844
10
-6.1607826720281977
20
-21.060502293820935
10
-18.355510053651003
20
-66.571844466488344
42
-0.43554609245890563
10
-24.177727557050133
20
-69.658364287263126
42
-0.095043975940548864
0
LWPOLYLINE
5
137
100
AcDbEntity
8
0
100
AcDbPolyline
90
8
70
1
43
0.0
10
70.850719853077734
20
-78.236679353744904
42
-0.10654985088343434
10
32.329591901541484
20
-100.47686294605236
42
-0.42878742141915266
10
26.604591589854248
20
-97.357835875378086
10
22.246143997228607
20
-81.091888017572842
42
-0.39692292687008196
10
25.172169793259794
20
-75.65733337158602
42
0.10155029725440291
10
52.93508778575162
20
-59.6284051951314
42
-0.39692292687008413
10
59.104563065446527
20
-59.811669846633251
10
71.012063330626077
20
-71.719170111812858
42
-0.42878742141915349
0
LWPOLYLINE
5
138
100
AcDbEntity
8
0
100
AcDbPolyline
90
8
70
1
43
0.0
10
24.177727557049931
20
-69.658364287263225
42
-0.43554609245890419
10
18.355510053650796
20
-66.571844466488429
10
6.1607826720281391
20
-21.06050229382096
42
-0.35000111041852827
10
8.4059591122631634
20
-15.916653272687702
42
0.018855381794880062
10
9.5812465212446423
20
-15.238100770737065
42
-0.3500011104185286
10
15.158538666895272
20
-15.865645448081871
10
48.475153457939896
20
-49.182260239126627
42
-0.43554609245890596
10
48.237049280315539
20
-55.767708413816052
42
-0.095043975940549086
0
ARC
5
139
100
AcDbEntity
8
0
100
AcDbCircle
10
0
20
0
30
0
40
105.55
100
AcDbArc
50
-12.163820633378355
51
12.163820633378208
0
LINE
5
140
100
AcDbEntity
8
0
100
AcDbLine
10
81.35070706267534
20
21.280218170939513
30
0
11
88.692926237214138
21
23.247559869409464
31
0
0
ARC
5
141
100
AcDbEntity
8
0
100
AcDbCircle
10
98.781340623441935
20
21.291999545264332
30
0
40
4.5000000000000009
100
AcDbArc
50
12.163820633378631
51
66.680006786995477
0
ARC
5
142
100
AcDbEntity
8
0
100
AcDbCircle
10
82.515392765636676
20
16.933551952638712
30
0
40
4.4999999999999893
100
AcDbArc
50
104.99999999999993
51
191.59705120130479
0
ARC
5
143
100
AcDbEntity
8
0
100
AcDbCircle
10
0
20
0
30
0
40
79.735000000000014
100
AcDbArc
50
-11.597051201304998
51
11.597051201304861
0
ARC
5
144
100
AcDbEntity
8
0
100
AcDbCircle
10
82.515392765636648
20
-16.933551952638936
30
0
40
4.5000000000000089
100
AcDbArc
50
168.40294879869518
51
255
0
LINE
5
145
100
AcDbEntity
8
0
100
AcDbLine
10
81.350707062675298
20
-21.280218170939769
30
0
11
88.692926237214351
21
-23.247559869409816
31
0
0
ARC
5
146
100
AcDbEntity
8
0
100
AcDbCircle
10
98.781340623441878
20
-21.291999545264598
30
0
40
4.5000000000000435
100
AcDbArc
50
293.31999321300782
51
347.83617936662102
0
LWPOLYLINE
5
147
100
AcDbEntity
8
0
100
AcDbPolyline
90
8
70
1
43
0.0
10
72.414776837365594
20
-13.890655873447306
42
-0.43554609245890291
10
66.83066351159087
20
-17.389584227361965
10
21.319321338923455
20
-5.1948568457391406
42
-0.35000111041852811
10
17.987205633507852
20
-0.67855250195066563
42
0.01885538179488043
10
17.987205633507848
20
0.67855250195060735
42
-0.35000111041852844
10
21.31932133892348
20
5.1948568457390643
10
66.830663511590927
20
17.389584227361688
42
-0.43554609245890558
10
72.41477683736565
20
13.890655873447024
42
-0.095043975940548864
0
ARC
5
148
100
AcDbEntity
8
0
100
AcDbCircle
10
126.04999999999998
20
0
30
0
40
44
100
AcDbArc
50
147.1442587154452
51
148.10571618339824
0
ARC
5
149
100
AcDbEntity
8
0
100
AcDbCircle
10
126.04999999999998
20
0
30
0
40
44
100
AcDbArc
50
211.8942838166023
51
212.85574128455502
0
ARC
5
150
100
AcDbEntity
8
0
100
AcDbCircle
10
126.04999999999998
20
0
30
0
40
36.000000000000007
100
AcDbArc
50
134.21919058729017
51
135.07075995309535
0
ARC
5
151
100
AcDbEntity
8
0
100
AcDbCircle
10
126.04999999999998
20
0
30
0
40
36.000000000000028
100
AcDbArc
50
224.92924004690511
51
225.78080941270974
0
ENDSEC
0
SECTION
2
OBJECTS
0
DICTIONARY
5
C
100
AcDbDictionary
3
ACAD_GROUP
350
D
3
ACAD_MLINESTYLE
350
17
0
DICTIONARY
5
D
100
AcDbDictionary
0
DICTIONARY
5
1A
330
C
100
AcDbDictionary
0
DICTIONARY
5
17
100
AcDbDictionary
0
ENDSEC
0
EOF
