0
SECTION
2
HEADER
9
$INSUNITS
70
4
9
$ACADVER
1
AC1014
9
$HANDSEED
5
FFFF
0
ENDSEC
0
SECTION
2
TABLES
0
TABLE
2
VPORT
5
8
100
AcDbSymbolTable
0
ENDTAB
0
TABLE
2
LTYPE
5
5
100
AcDbSymbolTable
0
LTYPE
5
14
100
AcDbSymbolTableRecord
100
AcDbLinetypeTableRecord
2
BYBLOCK
70
0
0
LTYPE
5
15
100
AcDbSymbolTableRecord
100
AcDbLinetypeTableRecord
2
BYLAYER
70
0
0
ENDTAB
0
TABLE
2
LAYER
5
2
100
AcDbSymbolTable
70
2
0
LAYER
5
50
100
AcDbSymbolTableRecord
100
AcDbLayerTableRecord
2
0
70
0
6
CONTINUOUS
0
ENDTAB
0
TABLE
2
STYLE
5
3
100
AcDbSymbolTable
70
1
0
STYLE
5
11
100
AcDbSymbolTableRecord
100
AcDbTextStyleTableRecord
2
STANDARD
70
0
0
ENDTAB
0
TABLE
2
VIEW
5
6
100
AcDbSymbolTable
70
0
0
ENDTAB
0
TABLE
2
UCS
5
7
100
AcDbSymbolTable
70
0
0
ENDTAB
0
TABLE
2
APPID
5
9
100
AcDbSymbolTable
70
2
0
APPID
5
12
100
AcDbSymbolTableRecord
100
AcDbRegAppTableRecord
2
ACAD
70
0
0
ENDTAB
0
TABLE
2
DIMSTYLE
5
A
100
AcDbSymbolTable
70
1
0
ENDTAB
0
TABLE
2
BLOCK_RECORD
5
1
100
AcDbSymbolTable
70
1
0
BLOCK_RECORD
5
1F
100
AcDbSymbolTableRecord
100
AcDbBlockTableRecord
2
*MODEL_SPACE
0
BLOCK_RECORD
5
1B
100
AcDbSymbolTableRecord
100
AcDbBlockTableRecord
2
*PAPER_SPACE
0
ENDTAB
0
ENDSEC
0
SECTION
2
BLOCKS
0
BLOCK
5
20
100
AcDbEntity
100
AcDbBlockBegin
2
*MODEL_SPACE
0
ENDBLK
5
21
100
AcDbEntity
100
AcDbBlockEnd
0
BLOCK
5
1C
100
AcDbEntity
100
AcDbBlockBegin
2
*PAPER_SPACE
0
ENDBLK
5
1D
100
AcDbEntity
100
AcDbBlockEnd
0
ENDSEC
0
SECTION
2
ENTITIES
0
CIRCLE
5
100
100
AcDbEntity
8
0
100
AcDbCircle
10
121.04999999999998
20
14
30
0
40
1.5
0
CIRCLE
5
101
100
AcDbEntity
8
0
100
AcDbCircle
10
131.04999999999998
20
14
30
0
40
1.5000000000000004
0
LWPOLYLINE
5
102
100
AcDbEntity
8
0
100
AcDbPolyline
90
4
70
1
43
0.0
10
136.04999999999998
20
10
10
116.04999999999998
20
10
10
116.04999999999998
20
-30.5
10
136.04999999999998
20
-30.5
0
LINE
5
103
100
AcDbEntity
8
0
100
AcDbLine
10
126.8
20
-27.499999999999204
30
0
11
126.8
21
-33.499999999999204
31
0
0
LINE
5
104
100
AcDbEntity
8
0
100
AcDbLine
10
126.8
20
-33.499999999999204
30
0
11
125.30000000000001
21
-27.499999999999204
31
0
0
LINE
5
105
100
AcDbEntity
8
0
100
AcDbLine
10
125.30000000000001
20
-27.499999999999204
30
0
11
126.8
21
-27.499999999999204
31
0
0
LINE
5
106
100
AcDbEntity
8
0
100
AcDbLine
10
125.30000000000001
20
-33.499999999999204
30
0
11
125.30000000000001
21
-27.499999999999204
31
0
0
LINE
5
107
100
AcDbEntity
8
0
100
AcDbLine
10
126.8
20
-33.499999999999204
30
0
11
125.30000000000001
21
-33.499999999999204
31
0
0
CIRCLE
5
108
100
AcDbEntity
8
0
100
AcDbCircle
10
131.04999999999998
20
-34.5
30
0
40
1.5000000000000002
0
LINE
5
109
100
AcDbEntity
8
0
100
AcDbLine
10
126.79999999999987
20
6.9999999999997549
30
0
11
126.79999999999987
21
12.999999999999757
31
0
0
LINE
5
110
100
AcDbEntity
8
0
100
AcDbLine
10
126.79999999999987
20
12.999999999999757
30
0
11
125.29999999999988
21
12.999999999999757
31
0
0
LINE
5
111
100
AcDbEntity
8
0
100
AcDbLine
10
125.29999999999988
20
12.999999999999757
30
0
11
126.79999999999987
21
6.9999999999997549
31
0
0
LINE
5
112
100
AcDbEntity
8
0
100
AcDbLine
10
125.29999999999988
20
12.999999999999757
30
0
11
125.29999999999988
21
6.9999999999997549
31
0
0
LINE
5
113
100
AcDbEntity
8
0
100
AcDbLine
10
125.29999999999988
20
6.9999999999997549
30
0
11
126.79999999999987
21
6.9999999999997549
31
0
0
CIRCLE
5
114
100
AcDbEntity
8
0
100
AcDbCircle
10
121.04999999999998
20
-34.5
30
0
40
1.4999999999999996
0
LWPOLYLINE
5
115
100
AcDbEntity
8
0
100
AcDbPolyline
90
6
70
1
43
0.0
10
184.41751632218592
20
-8.8817841970012523e-14
10
97.208758161092874
20
-151.04999999999998
10
-77.208758161093101
20
-151.04999999999987
10
-164.41751632218592
20
1.4210854715202004e-13
10
-77.208758161092859
20
151.05000000000004
10
97.208758161093044
20
151.04999999999993
0
LWPOLYLINE
5
116
100
AcDbEntity
8
0
100
AcDbPolyline
90
6
70
1
43
0.0
10
155.55000286270462
20
-7.1054273576010019e-14
10
82.77500143135228
20
-126.05000000000001
10
-62.775001431352457
20
-126.04999999999991
10
-135.55000286270464
20
1.2434497875801753e-13
10
-62.775001431352209
20
126.05000000000004
10
82.775001431352393
20
126.04999999999993
0
LWPOLYLINE
5
117
100
AcDbEntity
8
0
100
AcDbPolyline
90
9
70
1
43
0.0
10
48.828706848533244
20
-48.828706848533329
10
15.512092057488559
20
-15.512092057488582
42
-0.35000111041852738
10
14.814820193772116
20
-9.3151007845434428
42
0.018855381794879323
10
15.474524015113019
20
-8.1724602480336586
42
-0.35000111041852766
10
21.189911816372202
20
-5.6778197588836576
10
66.701253989039643
20
-17.872547140506441
42
-0.43554609245890408
10
70.130720456567204
20
-24.341677699838769
42
-0.04703204106097917
10
64.346074178324088
20
-37.019156700789601
42
-0.04779827124514021
10
56.145871487077073
20
-48.564146651172891
42
-0.43554609245890252
0
LWPOLYLINE
5
118
100
AcDbEntity
8
0
100
AcDbPolyline
90
10
70
1
43
0.0
10
-78.607293656699625
20
-71.186346190610095
42
-0.052741245142815404
10
-91.760810312461075
20
-53.165366459759618
42
-0.053507914174757996
10
-100.95283103201183
20
-32.482740134140016
42
-0.42878742141915083
10
-97.487245397929314
20
-26.12162867670979
10
-81.22129754012407
20
-21.763181084084135
42
-0.39692292687008079
10
-75.182903489027595
20
-25.014320857452081
42
0.051028158647493667
10
-68.558866620536079
20
-39.722374459585645
42
0.050261686334086293
10
-59.254489065482332
20
-52.603143923045472
42
-0.39692292687008324
10
-59.458116456039917
20
-59.458116456039846
10
-71.365616721219496
20
-71.365616721219411
42
-0.42878742141915538
0
LWPOLYLINE
5
119
100
AcDbEntity
8
0
100
AcDbPolyline
90
10
70
1
43
0.0
10
-26.121628676709811
20
97.4872453979293
10
-21.763181084084152
20
81.22129754012407
42
0.39692292687007991
10
-15.928414423545282
20
77.617464780497656
42
-0.05026168633408646
10
-0.12115207037129538
20
79.234907377846056
42
-0.051028158647493646
10
15.928414423545298
20
77.617464780497642
42
0.39692292687008007
10
21.763181084084195
20
81.22129754012407
10
26.121628676709854
20
97.487245397929286
42
0.42878742141915493
10
22.345537375312237
20
103.66908632475024
42
0.053507914174758121
10
-0.1621527994304679
20
106.04987603231619
42
0.05274124514281555
10
-22.345537375312205
20
103.66908632475025
42
0.42878742141915394
0
LWPOLYLINE
5
120
100
AcDbEntity
8
0
100
AcDbPolyline
90
10
70
1
43
0.0
10
-68.680018690907389
20
39.512532918260433
42
-0.051028158647493646
10
-59.254489065482268
20
52.603143923045543
42
0.39692292687008524
10
-59.458116456039853
20
59.458116456039889
10
-71.365616721219439
20
71.365616721219482
42
0.42878742141915693
10
-78.607293656699554
20
71.18634619061018
42
0.053507914174757858
10
-91.922963111891519
20
52.884509572556553
42
0.052741245142815418
10
-100.95283103201176
20
32.482740134140116
42
0.42878742141915799
10
-97.487245397929286
20
26.121628676709875
10
-81.221297540124056
20
21.763181084084209
42
0.39692292687007968
10
-75.182903489027566
20
25.014320857452155
42
-0.05026168633408646
0
LWPOLYLINE
5
121
100
AcDbEntity
8
0
100
AcDbPolyline
90
11
70
1
43
0.0
10
78.607293656699667
20
71.18634619061001
42
-0.052741245142815293
10
91.760810312461118
20
53.165366459759582
42
-0.030881729905079553
10
97.610653499225975
20
41.457964535828836
42
-0.33024614395441809
10
96.216456137378046
20
35.668048174760209
42
0.089841741508090295
10
85.600485055240966
20
22.936580842264114
10
81.22129754012407
20
21.763181084084081
42
-0.39692292687008046
10
75.182903489027595
20
25.014320857452073
42
0.051028158647493528
10
68.558866620536108
20
39.722374459585616
42
0.050261686334086439
10
59.254489065482325
20
52.603143923045444
42
-0.39692292687008351
10
59.458116456039932
20
59.458116456039811
10
71.365616721219538
20
71.365616721219368
42
-0.42878742141915926
0
LWPOLYLINE
5
122
100
AcDbEntity
8
0
100
AcDbPolyline
90
10
70
1
43
0.0
10
15.928414423545272
20
-77.617464780497656
42
-0.05026168633408646
10
0.1211520703712865
20
-79.234907377846071
42
-0.051028158647493646
10
-15.928414423545313
20
-77.617464780497656
42
0.39692292687008224
10
-21.763181084084199
20
-81.221297540124056
10
-26.121628676709861
20
-97.487245397929286
42
0.42878742141915266
10
-22.345537375312254
20
-103.66908632475028
42
0.05350791417475799
10
0.16215279943045491
20
-106.04987603231619
42
0.05274124514281555
10
22.345537375312212
20
-103.66908632475025
42
0.42878742141915288
10
26.121628676709797
20
-97.4872453979293
10
21.763181084084138
20
-81.221297540124056
42
0.39692292687008457
0
LWPOLYLINE
5
123
100
AcDbEntity
8
0
100
AcDbPolyline
90
9
70
1
43
0.0
10
13.984848969490065
20
-72.90582435101156
42
-0.047032041060979059
10
0.11350695960134827
20
-74.234913222621344
42
-0.04779827124514021
10
-13.984848969490129
20
-72.905824351011546
42
-0.43554609245890424
10
-17.872547140506395
20
-66.701253989039643
10
-5.6778197588836452
20
-21.189911816372206
42
-0.35000111041852849
10
-0.6597038213409101
20
-17.487561032577073
42
0.018855381794879323
10
0.65970382134088879
20
-17.487561032577077
42
-0.35000111041852938
10
5.6778197588836292
20
-21.189911816372209
10
17.872547140506349
20
-66.701253989039643
42
-0.43554609245890419
0
LWPOLYLINE
5
124
100
AcDbEntity
8
0
100
AcDbPolyline
90
9
70
1
43
0.0
10
-13.984848969490107
20
72.90582435101156
42
-0.04703204106097917
10
-0.11350695960132162
20
74.234913222621344
42
-0.047798271245139981
10
13.984848969490089
20
72.90582435101156
42
-0.4355460924589053
10
17.872547140506384
20
66.701253989039628
10
5.6778197588836434
20
21.189911816372206
42
-0.35000111041852894
10
0.65970382134090033
20
17.487561032577077
42
0.018855381794879323
10
-0.65970382134089434
20
17.487561032577077
42
-0.35000111041852905
10
-5.677819758883631
20
21.189911816372202
10
-17.872547140506356
20
66.701253989039643
42
-0.43554609245890408
0
LWPOLYLINE
5
125
100
AcDbEntity
8
0
100
AcDbPolyline
90
11
70
1
43
0.0
10
68.680018690907332
20
-39.512532918260455
42
-0.051028158647493757
10
59.25448906548219
20
-52.603143923045586
42
0.39692292687007924
10
59.458116456039832
20
-59.458116456039932
10
71.365616721219411
20
-71.365616721219538
42
0.42878742141915849
10
78.607293656699525
20
-71.186346190610223
42
0.05350791417475799
10
91.922963111891519
20
-52.884509572556617
42
0.030116507347421443
10
97.610653499226004
20
-41.457964535828836
42
0.33024614395441332
10
96.21645613737806
20
-35.668048174760216
42
-0.089841741508089254
10
85.60048505524108
20
-22.936580842264327
10
81.221297540124041
20
-21.763181084084252
42
0.39692292687008474
10
75.182903489027552
20
-25.014320857452233
42
-0.050261686334086349
0
LWPOLYLINE
5
126
100
AcDbEntity
8
0
100
AcDbPolyline
90
9
70
1
43
0.0
10
-64.23256721872275
20
-37.215756521831771
42
-0.04779827124514021
10
-70.130720456567218
20
-24.341677699838698
42
-0.43554609245890435
10
-66.701253989039643
20
-17.872547140506342
10
-21.189911816372209
20
-5.6778197588836274
42
-0.35000111041852866
10
-15.474524015113031
20
-8.1724602480336355
42
0.018855381794879323
10
-14.814820193772134
20
-9.3151007845434144
42
-0.35000111041852866
10
-15.51209205748858
20
-15.512092057488562
10
-48.828706848533272
20
-48.828706848533237
42
-0.43554609245890247
10
-56.14587148707713
20
-48.564146651172791
42
-0.047032041060979059
0
LWPOLYLINE
5
127
100
AcDbEntity
8
0
100
AcDbPolyline
90
9
70
1
43
0.0
10
-48.828706848533244
20
48.828706848533287
10
-15.512092057488569
20
15.512092057488577
42
-0.35000111041852883
10
-14.814820193772126
20
9.3151007845434268
42
0.018855381794879323
10
-15.474524015113021
20
8.1724602480336532
42
-0.35000111041852772
10
-21.189911816372202
20
5.6778197588836488
10
-66.701253989039628
20
17.872547140506406
42
-0.43554609245890402
10
-70.130720456567161
20
24.341677699838815
42
-0.047032041060978837
10
-64.346074178324074
20
37.019156700789615
42
-0.047798271245139981
10
-56.145871487077095
20
48.564146651172848
42
-0.43554609245890175
0
CIRCLE
5
128
100
AcDbEntity
8
0
100
AcDbCircle
10
0
20
0
30
0
40
1.5000000000000002
0
LWPOLYLINE
5
129
100
AcDbEntity
8
0
100
AcDbPolyline
90
9
70
1
43
0.0
10
64.232567218722778
20
37.2157565218317
42
-0.047798271245139981
10
70.130720456567204
20
24.341677699838677
42
-0.43554609245890369
10
66.701253989039657
20
17.872547140506313
10
21.189911816372209
20
5.6778197588836177
42
-0.35000111041852827
10
15.474524015113031
20
8.1724602480336372
42
0.018855381794879323
10
14.814820193772135
20
9.3151007845434108
42
-0.35000111041852866
10
15.512092057488589
20
15.512092057488553
10
48.828706848533315
20
48.828706848533216
42
-0.43554609245890497
10
56.145871487077166
20
48.564146651172777
42
-0.047032041060979059
0
ARC
5
130
100
AcDbEntity
8
0
100
AcDbCircle
10
107.12531986304278
20
35.239984133280451
30
0
40
4.0000000000000133
100
AcDbArc
50
-61.76318104519391
51
134.64080589106445
0
ARC
5
131
100
AcDbEntity
8
0
100
AcDbCircle
10
126.04999999999998
20
0
30
0
40
44
100
AcDbArc
50
118.23681895480595
51
240.31977453435147
0
ARC
5
132
100
AcDbEntity
8
0
100
AcDbCircle
10
126.04999999999998
20
0
30
0
40
36.000000000000007
100
AcDbArc
50
122.32190006981929
51
237.67809993018071
0
ARC
5
133
100
AcDbEntity
8
0
100
AcDbCircle
10
126.04999999999998
20
0
30
0
40
36.000000000000007
100
AcDbArc
50
237.67809993018071
51
241.74847016684518
0
ARC
5
134
100
AcDbEntity
8
0
100
AcDbCircle
10
107.11627250600483
20
-35.235123998407218
30
0
40
3.9999999999998681
100
AcDbArc
50
-134.4807849606689
51
61.748470166845237
0
ARC
5
135
100
AcDbEntity
8
0
100
AcDbCircle
10
126.04999999999998
20
0
30
0
40
44
100
AcDbArc
50
240.31977453435147
51
241.74847016684518
0
ARC
5
136
100
AcDbEntity
8
0
100
AcDbCircle
10
126.04999999999998
20
0
30
0
40
35.999999999999993
100
AcDbArc
50
118.23681895480595
51
122.32190006981929
0
LINE
5
137
100
AcDbEntity
8
0
100
AcDbLine
10
81.22129754012407
20
21.763181084084092
30
0
11
85.600485055240966
21
22.936580842264114
31
0
0
ENDSEC
0
SECTION
2
OBJECTS
0
DICTIONARY
5
C
100
AcDbDictionary
3
ACAD_GROUP
350
D
3
ACAD_MLINESTYLE
350
17
0
DICTIONARY
5
D
100
AcDbDictionary
0
DICTIONARY
5
1A
330
C
100
AcDbDictionary
0
DICTIONARY
5
17
100
AcDbDictionary
0
ENDSEC
0
EOF
