0
SECTION
2
HEADER
9
$INSUNITS
70
4
9
$ACADVER
1
AC1014
9
$HANDSEED
5
FFFF
0
ENDSEC
0
SECTION
2
TABLES
0
TABLE
2
VPORT
5
8
100
AcDbSymbolTable
0
ENDTAB
0
TABLE
2
LTYPE
5
5
100
AcDbSymbolTable
0
LTYPE
5
14
100
AcDbSymbolTableRecord
100
AcDbLinetypeTableRecord
2
BYBLOCK
70
0
0
LTYPE
5
15
100
AcDbSymbolTableRecord
100
AcDbLinetypeTableRecord
2
BYLAYER
70
0
0
ENDTAB
0
TABLE
2
LAYER
5
2
100
AcDbSymbolTable
70
2
0
LAYER
5
50
100
AcDbSymbolTableRecord
100
AcDbLayerTableRecord
2
0
70
0
6
CONTINUOUS
0
ENDTAB
0
TABLE
2
STYLE
5
3
100
AcDbSymbolTable
70
1
0
STYLE
5
11
100
AcDbSymbolTableRecord
100
AcDbTextStyleTableRecord
2
STANDARD
70
0
0
ENDTAB
0
TABLE
2
VIEW
5
6
100
AcDbSymbolTable
70
0
0
ENDTAB
0
TABLE
2
UCS
5
7
100
AcDbSymbolTable
70
0
0
ENDTAB
0
TABLE
2
APPID
5
9
100
AcDbSymbolTable
70
2
0
APPID
5
12
100
AcDbSymbolTableRecord
100
AcDbRegAppTableRecord
2
ACAD
70
0
0
ENDTAB
0
TABLE
2
DIMSTYLE
5
A
100
AcDbSymbolTable
70
1
0
ENDTAB
0
TABLE
2
BLOCK_RECORD
5
1
100
AcDbSymbolTable
70
1
0
BLOCK_RECORD
5
1F
100
AcDbSymbolTableRecord
100
AcDbBlockTableRecord
2
*MODEL_SPACE
0
BLOCK_RECORD
5
1B
100
AcDbSymbolTableRecord
100
AcDbBlockTableRecord
2
*PAPER_SPACE
0
ENDTAB
0
ENDSEC
0
SECTION
2
BLOCKS
0
BLOCK
5
20
100
AcDbEntity
100
AcDbBlockBegin
2
*MODEL_SPACE
0
ENDBLK
5
21
100
AcDbEntity
100
AcDbBlockEnd
0
BLOCK
5
1C
100
AcDbEntity
100
AcDbBlockBegin
2
*PAPER_SPACE
0
ENDBLK
5
1D
100
AcDbEntity
100
AcDbBlockEnd
0
ENDSEC
0
SECTION
2
ENTITIES
0
LWPOLYLINE
5
100
100
AcDbEntity
8
0
100
AcDbPolyline
90
8
70
1
43
0.0
10
71.012063330626077
20
-71.719170111812858
10
59.104563065446527
20
-59.811669846633251
42
0.39692292687008457
10
52.935087785751627
20
-59.628405195131421
42
-0.1015502972544023
10
25.172169793259794
20
-75.657333371586034
42
0.39692292687008196
10
22.246143997228607
20
-81.091888017572828
10
26.604591589854245
20
-97.357835875378086
42
0.42878742141915321
10
32.329591901541491
20
-100.47686294605236
42
0.10654985088343423
10
70.850719853077749
20
-78.236679353744904
42
0.42878742141915394
0
LWPOLYLINE
5
101
100
AcDbEntity
8
0
100
AcDbPolyline
90
22
70
1
43
0.0
10
78.107257579011602
20
16.028928176454535
42
-0.10155029725440276
10
78.107257579011545
20
-16.028928176454741
42
0.39692292687008385
10
81.350707062675298
20
-21.280218170939751
10
88.692926237214351
20
-23.247559869409802
42
0.0041951742191299367
10
89.088275433344094
20
-23.871131457445998
42
0.07615081231988502
10
97.92921307903822
20
-33.841119114855921
42
0.44386569119320279
10
103.80233616903541
20
-33.000628085907543
10
103.80233616903539
20
-33.000628085907522
42
0.38517038821472899
10
103.04208342830404
20
-27.688188366700341
42
-0.019610388747791262
10
100.94341333931318
20
-25.800374149407705
42
-0.0037156894104942171
10
100.56273747920365
20
-25.424386899117394
42
0.24246215574937915
10
103.18031175461942
20
-22.240183592307577
42
0.1065498508834342
10
103.18031175461945
20
22.240183592307304
42
0.24246215574939337
10
100.56273747920356
20
25.42438689911728
42
-0.0037156894104961049
10
100.94341333931324
20
25.800374149407716
42
-0.019916008173910666
10
103.07593557586071
20
27.716283369808011
42
0.38517038821472427
10
103.84267955080745
20
33.027790093599592
10
103.84267955080743
20
33.027790093599585
42
0.44386569119319463
10
97.970587926051934
20
33.8754574519876
42
0.076458091156946628
10
89.088275433344037
20
23.871131457445859
42
0.0041951742191299367
10
88.692926237214138
20
23.247559869409457
10
81.35070706267534
20
21.280218170939513
42
0.39692292687008524
0
LWPOLYLINE
5
102
100
AcDbEntity
8
0
100
AcDbPolyline
90
8
70
1
43
0.0
10
-26.604591589854483
20
-97.357835875378015
10
-22.246143997228771
20
-81.091888017572771
42
0.39692292687008157
10
-25.17216979325994
20
-75.657333371585963
42
-0.1015502972544032
10
-52.935087785751733
20
-59.628405195131293
42
0.39692292687007952
10
-59.104563065446662
20
-59.811669846633123
10
-71.012063330626233
20
-71.719170111812673
42
0.42878742141914994
10
-70.850719853077962
20
-78.236679353744776
42
0.10654985088343411
10
-32.329591901541647
20
-100.47686294605221
42
0.42878742141915183
0
CIRCLE
5
103
100
AcDbEntity
8
0
100
AcDbCircle
10
0
20
0
30
0
40
1.5000000000000002
0
LWPOLYLINE
5
104
100
AcDbEntity
8
0
100
AcDbPolyline
90
8
70
1
43
0.0
10
8.4059591122631652
20
-15.916653272687702
42
0.35000111041852794
10
6.16078267202814
20
-21.06050229382096
10
18.355510053650804
20
-66.571844466488415
42
0.4355460924589043
10
24.177727557049927
20
-69.65836428726324
42
0.095043975940549211
10
48.237049280315546
20
-55.767708413816059
42
0.4355460924589048
10
48.475153457939903
20
-49.182260239126634
10
15.158538666895272
20
-15.865645448081873
42
0.35000111041852833
10
9.5812465212446352
20
-15.238100770737073
42
-0.01885538179488001
0
LINE
5
105
100
AcDbEntity
8
0
100
AcDbLine
10
126.79999999999987
20
6.999999999999754
30
0
11
126.79999999999987
21
12.999999999999758
31
0
0
LWPOLYLINE
5
106
100
AcDbEntity
8
0
100
AcDbPolyline
90
8
70
1
43
0.0
10
66.830663511590927
20
17.389584227361688
10
21.319321338923483
20
5.1948568457390651
42
0.35000111041852833
10
17.987205633507852
20
0.6785525019505968
42
-0.018855381794881564
10
17.987205633507848
20
-0.67855250195066563
42
0.35000111041852827
10
21.319321338923451
20
-5.1948568457391398
10
66.83066351159087
20
-17.389584227361969
42
0.43554609245890263
10
72.414776837365608
20
-13.890655873447304
42
0.095043975940549086
10
72.414776837365665
20
13.890655873447029
42
0.43554609245890658
0
LINE
5
107
100
AcDbEntity
8
0
100
AcDbLine
10
126.8
20
-33.499999999999204
30
0
11
125.30000000000001
21
-27.499999999999204
31
0
0
LWPOLYLINE
5
108
100
AcDbEntity
8
0
100
AcDbPolyline
90
6
70
1
43
0.0
10
-164.41800566148612
20
-0.032828181551085578
10
-77.267629959720452
20
-151.11652026988031
10
97.149873337201711
20
-151.18392700695773
10
184.41700093235789
20
-0.1676416557059035
10
97.266625230592112
20
150.91605043262328
10
-77.150878066329938
20
150.98345716970067
0
LWPOLYLINE
5
109
100
AcDbEntity
8
0
100
AcDbPolyline
90
8
70
1
43
0.0
10
-8.4059591122632309
20
-15.916653272687661
42
-0.01885538179488001
10
-9.5812465212446831
20
-15.238100770737038
42
0.35000111041852905
10
-15.158538666895316
20
-15.865645448081827
10
-48.475153457940088
20
-49.182260239126485
42
0.43554609245890297
10
-48.237049280315674
20
-55.767708413815953
42
0.095043975940548864
10
-24.177727557050133
20
-69.658364287263154
42
0.43554609245890635
10
-18.355510053651003
20
-66.571844466488344
10
-6.1607826720281977
20
-21.060502293820935
42
0.35000111041852866
0
LWPOLYLINE
5
110
100
AcDbEntity
8
0
100
AcDbPolyline
90
8
70
1
43
0.0
10
-26.604591589854284
20
97.357835875378086
42
0.42878742141915288
10
-32.329591901541463
20
100.47686294605235
42
0.10654985088343423
10
-70.850719853077777
20
78.236679353744847
42
0.42878742141915444
10
-71.012063330626091
20
71.719170111812815
10
-59.104563065446541
20
59.811669846633215
42
0.39692292687008179
10
-52.935087785751662
20
59.628405195131357
42
-0.10155029725440332
10
-25.172169793259833
20
75.65733337158602
42
0.39692292687008146
10
-22.24614399722865
20
81.091888017572828
0
LWPOLYLINE
5
111
100
AcDbEntity
8
0
100
AcDbPolyline
90
8
70
1
43
0.0
10
48.237049280315638
20
55.767708413815946
42
-0.43554609245890519
10
48.475153457940046
20
49.182260239126492
10
15.158538666895316
20
15.865645448081827
42
-0.35000111041852833
10
9.5812465212446689
20
15.23810077073705
42
0.018855381794879677
10
8.4059591122631776
20
15.916653272687691
42
-0.35000111041852833
10
6.160782672028196
20
21.060502293820935
10
18.355510053650999
20
66.571844466488344
42
-0.43554609245890652
10
24.177727557050098
20
69.658364287263169
42
-0.095043975940548309
0
LINE
5
112
100
AcDbEntity
8
0
100
AcDbLine
10
125.29999999999987
20
12.999999999999758
30
0
11
126.79999999999987
21
6.999999999999754
31
0
0
LINE
5
113
100
AcDbEntity
8
0
100
AcDbLine
10
126.8
20
-33.499999999999204
30
0
11
125.30000000000001
21
-33.499999999999204
31
0
0
LWPOLYLINE
5
114
100
AcDbEntity
8
0
100
AcDbPolyline
90
4
70
1
43
0.0
10
116.04999999999998
20
-30.500000000000007
10
116.04999999999998
20
10
10
136.04999999999998
20
10.000000000000004
10
136.04999999999998
20
-30.500000000000004
0
LWPOLYLINE
5
115
100
AcDbEntity
8
0
100
AcDbPolyline
90
8
70
1
43
0.0
10
-17.987205633507848
20
0.67855250195065597
42
0.35000111041852844
10
-21.319321338923459
20
5.1948568457391282
10
-66.830663511590899
20
17.389584227361933
42
0.43554609245890419
10
-72.414776837365594
20
13.890655873447265
42
0.095043975940548753
10
-72.41477683736565
20
-13.89065587344707
42
0.43554609245890513
10
-66.830663511590913
20
-17.38958422736173
10
-21.319321338923483
20
-5.1948568457390731
42
0.35000111041852866
10
-17.987205633507848
20
-0.67855250195064576
42
-0.018855381794880454
0
CIRCLE
5
116
100
AcDbEntity
8
0
100
AcDbCircle
10
131.04999999999998
20
14.000000000000002
30
0
40
1.5000000000000004
0
LWPOLYLINE
5
117
100
AcDbEntity
8
0
100
AcDbPolyline
90
8
70
1
43
0.0
10
71.012063330626219
20
71.719170111812673
10
59.104563065446669
20
59.811669846633116
42
-0.39692292687008268
10
52.935087785751762
20
59.628405195131293
42
0.10155029725440343
10
25.172169793259922
20
75.657333371585949
42
-0.39692292687008651
10
22.246143997228771
20
81.091888017572771
10
26.604591589854447
20
97.357835875378015
42
-0.4287874214191511
10
32.329591901541647
20
100.47686294605225
42
-0.10654985088343434
10
70.850719853077891
20
78.236679353744776
42
-0.42878742141915338
0
LWPOLYLINE
5
118
100
AcDbEntity
8
0
100
AcDbPolyline
90
8
70
1
43
0.0
10
-6.1607826720281444
20
21.060502293820953
10
-18.355510053650839
20
66.571844466488415
42
0.43554609245890269
10
-24.177727557049955
20
69.658364287263225
42
0.095043975940548753
10
-48.237049280315503
20
55.767708413816052
42
0.43554609245890519
10
-48.475153457939903
20
49.182260239126606
10
-15.158538666895275
20
15.865645448081862
42
0.35000111041852827
10
-9.581246521244605
20
15.238100770737081
42
-0.01885538179488112
10
-8.4059591122631705
20
15.916653272687691
42
0.35000111041852827
0
CIRCLE
5
119
100
AcDbEntity
8
0
100
AcDbCircle
10
121.04999999999998
20
-34.5
30
0
40
1.4999999999999996
0
LINE
5
120
100
AcDbEntity
8
0
100
AcDbLine
10
125.29999999999987
20
6.999999999999754
30
0
11
126.79999999999987
21
6.999999999999754
31
0
0
LWPOLYLINE
5
121
100
AcDbEntity
8
0
100
AcDbPolyline
90
8
70
1
43
0.0
10
-97.616654920480528
20
25.638665763565385
42
0.4287874214191571
10
-103.18031175461942
20
22.240183592307577
42
0.10654985088343399
10
-103.18031175461941
20
-22.240183592307368
42
0.42878742141915882
10
-97.616654920480585
20
-25.638665763565172
10
-81.35070706267534
20
-21.280218170939552
42
0.39692292687008629
10
-78.107257579011559
20
-16.02892817645462
42
-0.1015502972544032
10
-78.107257579011559
20
16.02892817645472
42
0.39692292687008052
10
-81.350707062675298
20
21.280218170939719
0
LINE
5
122
100
AcDbEntity
8
0
100
AcDbLine
10
126.79999999999987
20
12.999999999999758
30
0
11
125.29999999999987
21
12.999999999999758
31
0
0
CIRCLE
5
123
100
AcDbEntity
8
0
100
AcDbCircle
10
121.04999999999998
20
14.000000000000002
30
0
40
1.5000000000000002
0
LINE
5
124
100
AcDbEntity
8
0
100
AcDbLine
10
98.788606443188229
20
-40.437644001963243
30
0
11
100.63543822189578
21
-41.682701897772588
31
0
0
LINE
5
125
100
AcDbEntity
8
0
100
AcDbLine
10
125.29999999999987
20
12.999999999999758
30
0
11
125.29999999999987
21
6.999999999999754
31
0
0
LINE
5
126
100
AcDbEntity
8
0
100
AcDbLine
10
125.30000000000001
20
-27.499999999999204
30
0
11
126.8
21
-27.499999999999204
31
0
0
LINE
5
127
100
AcDbEntity
8
0
100
AcDbLine
10
125.30000000000001
20
-33.499999999999204
30
0
11
125.30000000000001
21
-27.499999999999204
31
0
0
LINE
5
128
100
AcDbEntity
8
0
100
AcDbLine
10
126.8
20
-27.499999999999204
30
0
11
126.8
21
-33.499999999999204
31
0
0
CIRCLE
5
129
100
AcDbEntity
8
0
100
AcDbCircle
10
131.04999999999998
20
-34.5
30
0
40
1.5000000000000002
0
ARC
5
130
100
AcDbEntity
8
0
100
AcDbCircle
10
126.04999999999998
20
0
30
0
40
44
100
AcDbArc
50
240.31977453435147
51
241.74847016684518
0
LWPOLYLINE
5
131
100
AcDbEntity
8
0
100
AcDbPolyline
90
10
70
1
43
0.0
10
28.437123375541699
20
-338.06131815802331
42
-0.42878742141915244
10
21.919614133609606
20
-338.22266163557163
10
10.012113868430056
20
-326.31516137039205
42
-0.3969229268700854
10
9.8288492169281856
20
-320.14568609069721
42
0.051028158647493091
10
19.313857163962652
20
-306.97246884495291
42
0.05026168633408646
10
25.857777393382896
20
-292.38276809820536
42
-0.39692292687007763
10
31.29233203936975
20
-289.45674230217423
10
47.558279897174991
20
-293.81518989479986
42
-0.42878742141915638
10
50.677306967849212
20
-299.54019020648713
42
-0.052741245142815071
10
41.690012682430194
20
-319.84577025575481
42
-0.053507914174758218
0
LWPOLYLINE
5
132
100
AcDbEntity
8
0
100
AcDbPolyline
90
10
70
1
43
0.0
10
29.210948515104693
20
-248.21387741124914
10
51.248546241889777
20
-242.30892089723514
42
0.41421356237309681
10
52.662759804262862
20
-239.85943115445201
10
52.636877899750502
20
-239.76283857181505
42
0.00024026914312768764
10
52.610451196858065
20
-239.66440200847049
42
0.41393209757452865
10
50.161459836022416
20
-238.25204486406784
10
28.123849073086401
20
-244.15700487110797
42
0.41457415896697614
10
26.710274185107352
20
-246.60887232430497
42
-0.00030774921043667331
10
26.735576867811275
20
-246.70307126624724
10
26.761458772321511
20
-246.79966384887609
42
0.41421356237309381
0
LWPOLYLINE
5
133
100
AcDbEntity
8
0
100
AcDbPolyline
90
9
70
1
43
0.0
10
19.858808309060084
20
-243.0328707478954
42
0.047798271245140765
10
14.000381300338368
20
-230.24550357688901
42
0.047032041060977844
10
5.9681524356129785
20
-218.97354902462982
42
0.43554609245890685
10
-0.61729573907649105
20
-218.73544484700545
10
-33.933910530121217
20
-252.05205963805011
42
0.35000111041852994
10
-34.561455207466032
20
-257.62935178370071
42
-0.018855381794877123
10
-33.88290270551537
20
-258.8046391926822
42
0.35000111041852894
10
-28.739053684382128
20
-261.04981563291722
10
16.772288488285326
20
-248.85508825129449
42
0.43554609245890263
0
LWPOLYLINE
5
134
100
AcDbEntity
8
0
100
AcDbPolyline
90
10
70
1
43
0.0
10
-28.51933780726343
20
-185.85989124227009
10
-24.160890214637799
20
-169.59394338446486
42
0.42878742141915061
10
-27.559372385895532
20
-164.03028655032597
42
0.053507914174759447
10
-49.960944266556595
20
-161.66072168815163
42
0.052741245142815182
10
-72.039739570510505
20
-164.03028655032588
42
0.42878742141915777
10
-75.438221741768359
20
-169.59394338446484
10
-71.079774149142708
20
-185.85989124227009
42
0.39692292687007918
10
-65.828484154657659
20
-189.10334072593383
42
-0.050261686334085905
10
-49.921472559651363
20
-187.47569151157683
42
-0.051028158647493535
10
-33.770627801748397
20
-189.10334072593383
42
0.39692292687008213
0
LWPOLYLINE
5
135
100
AcDbEntity
8
0
100
AcDbPolyline
90
10
70
1
43
0.0
10
-147.15739185358115
20
-293.81518989479969
10
-130.89144399577589
20
-289.45674230217406
42
-0.39692292687007963
10
-125.45688934978909
20
-292.38276809820519
42
0.051028158647493202
10
-118.7910525389205
20
-307.18363455830644
42
0.050261686334086016
10
-109.42796117333444
20
-320.14568609069704
42
-0.39692292687008068
10
-109.61122582483628
20
-326.31516137039199
10
-121.51872609001583
20
-338.22266163557151
42
-0.42878742141916132
10
-128.03623533194803
20
-338.06131815802314
42
-0.052741245142815849
10
-141.12773635048282
20
-320.12530297092962
42
-0.053507914174758552
10
-150.27641892425544
20
-299.54019020648695
42
-0.42878742141915044
0
LWPOLYLINE
5
136
100
AcDbEntity
8
0
100
AcDbPolyline
90
9
70
1
43
0.0
10
-67.189140205564939
20
-334.04126181653629
42
0.4355460924589063
10
-63.690211851650247
20
-339.62537514231099
42
0.047798271245140432
10
-49.686813529678687
20
-340.94551211204424
42
0.047032041060978837
10
-35.908900104755986
20
-339.62537514231099
42
0.43554609245890769
10
-32.409971750841258
20
-334.04126181653623
10
-44.604699132463985
20
-288.52991964386882
42
0.35000111041852883
10
-49.121003476252469
20
-285.19780393845326
42
-0.018855381794879677
10
-50.478108480153722
20
-285.19780393845326
42
0.3500011104185286
10
-54.99441282394217
20
-288.52991964386882
0
LWPOLYLINE
5
137
100
AcDbEntity
8
0
100
AcDbPolyline
90
10
70
1
43
0.0
10
26.425301721614616
20
-233.32761889577097
42
-0.3541644700460696
10
21.250753443882214
20
-231.0232558213373
42
0.013513830338467498
10
19.191940582514452
20
-227.2375620515844
42
0.050261686334086904
10
9.828849216928301
20
-214.27551051919374
42
-0.39692292687008368
10
10.012113868430141
20
-208.10603523949885
10
21.919614133609748
20
-196.19853497431933
42
-0.42878742141915727
10
28.437123375541773
20
-196.35987845186753
42
-0.052741245142815515
10
41.528624394076552
20
-214.29589363896093
42
-0.022321017824258192
10
45.882353497786241
20
-222.64856627061619
42
-0.4661634714454404
10
42.967753623846093
20
-228.89508226773731
0
LWPOLYLINE
5
138
100
AcDbEntity
8
0
100
AcDbPolyline
90
9
70
1
43
0.0
10
-63.69021185165024
20
-194.79582146757977
42
0.43554609245890497
10
-67.189140205564897
20
-200.37993479335449
10
-54.99441282394217
20
-245.89127696602191
42
0.35000111041853099
10
-50.478108480153679
20
-249.22339267143755
42
-0.018855381794879677
10
-49.121003476252426
20
-249.22339267143755
42
0.35000111041852816
10
-44.604699132463978
20
-245.89127696602193
10
-32.409971750841223
20
-200.37993479335449
42
0.43554609245890408
10
-35.908900104755858
20
-194.79582146757977
42
0.04779827124514132
10
-49.912298426727446
20
-193.47568449784649
42
0.047032041060979281
0
LWPOLYLINE
5
139
100
AcDbEntity
8
0
100
AcDbPolyline
90
10
70
1
43
0.0
10
-33.770627801748439
20
-345.3178558839569
42
-0.39692292687007991
10
-28.519337807263465
20
-348.56130536762072
10
-24.160890214637849
20
-364.82725322542592
42
-0.42878742141915688
10
-27.559372385895653
20
-370.39091005956487
42
-0.0527412451428163
10
-49.638167689849496
20
-372.76047492173916
42
-0.053507914174759336
10
-72.039739570510562
20
-370.39091005956487
42
-0.42878742141915416
10
-75.438221741768402
20
-364.82725322542592
10
-71.079774149142722
20
-348.56130536762072
42
-0.39692292687008229
10
-65.82848415465773
20
-345.3178558839569
42
0.051028158647493424
10
-49.677639396754749
20
-346.94550509831396
42
0.050261686334086127
0
LWPOLYLINE
5
140
100
AcDbEntity
8
0
100
AcDbPolyline
90
9
70
1
43
0.0
10
19.85880830906012
20
-291.3883258619955
42
0.43554609245890702
10
16.772288488285305
20
-285.56610835859635
10
-28.739053684382135
20
-273.37138097697357
42
0.35000111041852938
10
-33.882902705515406
20
-275.61655741720858
42
-0.018855381794877901
10
-34.561455207466039
20
-276.79184482619007
42
0.35000111041852905
10
-33.933910530121238
20
-282.3691369718407
10
-0.61729573907655122
20
-315.68575176288545
42
0.43554609245890602
10
5.9681524356128381
20
-315.44764758526117
42
0.047798271245140654
10
14.113123748862716
20
-303.98041738398791
42
0.047032041060978733
0
LWPOLYLINE
5
141
100
AcDbEntity
8
0
100
AcDbPolyline
90
10
70
1
43
0.0
10
-109.42796117333435
20
-214.27551051919363
42
0.051028158647492869
10
-118.9129691203688
20
-227.44872776493793
42
0.050261686334086349
10
-125.45688934978907
20
-242.03842851168554
42
-0.39692292687007963
10
-130.89144399577589
20
-244.96445430771666
10
-147.15739185358115
20
-240.60600671509096
42
-0.42878742141915632
10
-150.27641892425527
20
-234.88100640340372
42
-0.052741245142815515
10
-141.28912463883634
20
-214.575426354136
42
-0.053507914174760002
10
-128.03623533194789
20
-196.35987845186753
42
-0.42878742141915133
10
-121.51872609001579
20
-196.19853497431919
10
-109.61122582483624
20
-208.10603523949879
42
-0.39692292687008057
0
LWPOLYLINE
5
142
100
AcDbEntity
8
0
100
AcDbPolyline
90
9
70
1
43
0.0
10
-98.981816217329623
20
-315.68575176288539
10
-65.665201426284924
20
-282.3691369718407
42
0.3500011104185301
10
-65.037656748940151
20
-276.79184482619002
42
-0.018855381794881897
10
-65.716209250890799
20
-275.61655741720858
42
0.3500011104185301
10
-70.86005827202402
20
-273.37138097697357
10
-116.37140044469149
20
-285.56610835859635
42
0.43554609245890136
10
-119.45792026546629
20
-291.38832586199533
42
0.04779827124513987
10
-113.59949325674449
20
-304.17569303300178
42
0.047032041060978622
10
-105.5672643920191
20
-315.447647585261
42
0.43554609245890502
0
CIRCLE
5
143
100
AcDbEntity
8
0
100
AcDbCircle
10
-49.799555978203074
20
-267.21059830494539
30
0
40
1.5000000000000002
0
LWPOLYLINE
5
144
100
AcDbEntity
8
0
100
AcDbPolyline
90
9
70
1
43
0.0
10
-70.860058272024006
20
-261.04981563291722
42
0.35000111041852894
10
-65.716209250890742
20
-258.8046391926822
42
-0.01885538179488223
10
-65.037656748940137
20
-257.62935178370071
42
0.35000111041852811
10
-65.665201426284909
20
-252.05205963805011
10
-98.981816217329623
20
-218.7354448470054
42
0.43554609245890519
10
-105.56726439201904
20
-218.97354902462976
42
0.047798271245139322
10
-113.71223570526891
20
-230.4407792259029
42
0.04703204106097951
10
-119.45792026546621
20
-243.03287074789526
42
0.43554609245890297
10
-116.37140044469146
20
-248.85508825129446
0
LWPOLYLINE
5
145
100
AcDbEntity
8
0
100
AcDbPolyline
90
2
70
1
43
0.0
10
-78.541410936837948
20
-159.94453529554431
42
7.5957541127251433
10
-21.057701019568125
20
-159.94453529554437
42
0.13165249758739569
0
ARC
5
146
100
AcDbEntity
8
0
100
AcDbCircle
10
-49.799555978203074
20
-267.21059830494539
30
0
40
17.500000000000007
100
AcDbArc
50
267.83958840690411
51
272.16041159309583
0
LINE
5
147
100
AcDbEntity
8
0
100
AcDbLine
10
52.073272329574039
20
-237.73977625034092
30
0
11
52.093357905037294
21
-237.73439433661605
31
0
0
CIRCLE
5
148
100
AcDbEntity
8
0
100
AcDbCircle
10
100.22006729850028
20
-179.30756633592483
30
0
40
1.4999999999999925
0
CIRCLE
5
149
100
AcDbEntity
8
0
100
AcDbCircle
10
130.22006729850028
20
-179.27137069723369
30
0
40
1.4999999999999925
0
CIRCLE
5
150
100
AcDbEntity
8
0
100
AcDbCircle
10
115.23816511784588
20
-194.28946851657926
30
0
40
1.4999999999999925
0
LINE
5
151
100
AcDbEntity
8
0
100
AcDbLine
10
72.937213987274163
20
-189.02902003168077
30
0
11
111.6197739342072
21
-196.92573477934101
31
0
0
LINE
5
152
100
AcDbEntity
8
0
100
AcDbLine
10
73.025995915471952
20
-169.53674350130342
30
0
11
112.41653373121721
21
-161.50913669917162
31
0
0
CIRCLE
5
153
100
AcDbEntity
8
0
100
AcDbCircle
10
115.20196947915467
20
-164.28946851657926
30
0
40
1.4999999999999925
0
CIRCLE
5
154
100
AcDbEntity
8
0
100
AcDbCircle
10
75.220067461295741
20
-179.29307734408508
30
0
40
1.4999999999999951
0
ARC
5
155
100
AcDbEntity
8
0
100
AcDbCircle
10
115.22006729850028
20
-179.28946851657926
30
0
40
18.000000000000025
100
AcDbArc
50
-101.53791209777064
51
104.07733654590032
0
ARC
5
156
100
AcDbEntity
8
0
100
AcDbCircle
10
75.220067461295741
20
-179.29307734408508
30
0
40
10.000000000000002
100
AcDbArc
50
100.36352635977606
51
260.1203197790025
0
CIRCLE
5
157
100
AcDbEntity
8
0
100
AcDbCircle
10
115.22006729850028
20
-179.28946851657926
30
0
40
6.0000000000000062
0
LINE
5
158
100
AcDbEntity
8
0
100
AcDbLine
10
80.513728564299782
20
-363.55561249642926
30
0
11
82.013728564299768
21
-357.55561249642926
31
0
0
LWPOLYLINE
5
159
100
AcDbEntity
8
0
100
AcDbPolyline
90
4
70
1
43
0.0
10
96.26372856429974
20
-310.05561249643
10
96.26372856429974
20
-370.55561249643
10
66.263728564299754
20
-370.55561249643
10
66.263728564299754
20
-310.05561249643
0
LWPOLYLINE
5
160
100
AcDbEntity
8
0
100
AcDbPolyline
90
12
70
1
43
0.0
10
82.01372856429964
20
-320.05561249643
10
91.263728564299754
20
-320.05561249643
10
91.263728564299754
20
-360.55561249643
10
82.013728564299768
20
-360.55561249643006
10
82.013728564299768
20
-363.55561249642926
10
80.513728564299782
20
-363.55561249642926
10
80.513728564299782
20
-360.55561249643
10
71.263728564299754
20
-360.55561249643006
10
71.263728564299754
20
-320.05561249643
10
80.51372856429964
20
-320.05561249643
10
80.51372856429964
20
-317.05561249643029
10
82.01372856429964
20
-317.05561249643029
0
LINE
5
161
100
AcDbEntity
8
0
100
AcDbLine
10
82.01372856429964
20
-317.05561249643029
30
0
11
80.51372856429964
21
-323.05561249643029
31
0
0
CIRCLE
5
162
100
AcDbEntity
8
0
100
AcDbCircle
10
86.263728564299754
20
-316.05561249643006
30
0
40
1.5000000000000004
0
CIRCLE
5
163
100
AcDbEntity
8
0
100
AcDbCircle
10
86.263728564299754
20
-364.55561249643006
30
0
40
1.5000000000000002
0
CIRCLE
5
164
100
AcDbEntity
8
0
100
AcDbCircle
10
76.263728564299754
20
-364.55561249643006
30
0
40
1.4999999999999996
0
LINE
5
165
100
AcDbEntity
8
0
100
AcDbLine
10
80.51372856429964
20
-317.05561249643029
30
0
11
82.01372856429964
21
-323.05561249643029
31
0
0
CIRCLE
5
166
100
AcDbEntity
8
0
100
AcDbCircle
10
76.263728564299754
20
-316.05561249643006
30
0
40
1.5000000000000002
0
CIRCLE
5
167
100
AcDbEntity
8
0
100
AcDbCircle
10
122.9365743972364
20
-364.55561249643006
30
0
40
1.5000000000000002
0
LINE
5
168
100
AcDbEntity
8
0
100
AcDbLine
10
117.18657439723628
20
-317.05561249643029
30
0
11
118.68657439723628
21
-323.05561249643029
31
0
0
LWPOLYLINE
5
169
100
AcDbEntity
8
0
100
AcDbPolyline
90
4
70
1
43
0.0
10
102.9365743972364
20
-370.55561249643
10
102.9365743972364
20
-310.05561249643
10
132.93657439723637
20
-310.05561249643
10
132.93657439723637
20
-370.55561249643
0
CIRCLE
5
170
100
AcDbEntity
8
0
100
AcDbCircle
10
112.9365743972364
20
-316.05561249643006
30
0
40
1.5000000000000002
0
LWPOLYLINE
5
171
100
AcDbEntity
8
0
100
AcDbPolyline
90
12
70
1
43
0.0
10
117.18657439723628
20
-317.05561249643029
10
118.68657439723628
20
-317.05561249643029
10
118.68657439723628
20
-320.05561249643
10
127.9365743972364
20
-320.05561249643
10
127.9365743972364
20
-360.55561249643
10
118.68657439723641
20
-360.55561249643
10
118.68657439723641
20
-363.55561249642926
10
117.18657439723643
20
-363.55561249642926
10
117.18657439723643
20
-360.55561249643
10
107.9365743972364
20
-360.55561249643
10
107.9365743972364
20
-320.05561249643
10
117.18657439723628
20
-320.05561249643
0
CIRCLE
5
172
100
AcDbEntity
8
0
100
AcDbCircle
10
112.9365743972364
20
-364.55561249643006
30
0
40
1.4999999999999996
0
CIRCLE
5
173
100
AcDbEntity
8
0
100
AcDbCircle
10
122.9365743972364
20
-316.05561249643006
30
0
40
1.5000000000000004
0
LINE
5
174
100
AcDbEntity
8
0
100
AcDbLine
10
118.68657439723628
20
-317.05561249643029
30
0
11
117.18657439723628
21
-323.05561249643029
31
0
0
LINE
5
175
100
AcDbEntity
8
0
100
AcDbLine
10
117.18657439723643
20
-363.55561249642926
30
0
11
118.68657439723641
21
-357.55561249642926
31
0
0
LINE
5
176
100
AcDbEntity
8
0
100
AcDbLine
10
83.855928616971653
20
-213.0008570810802
30
0
11
123.24646643271691
21
-204.97325027894843
31
0
0
CIRCLE
5
177
100
AcDbEntity
8
0
100
AcDbCircle
10
126.06809781934558
20
-237.75358209635607
30
0
40
1.4999999999999925
0
CIRCLE
5
178
100
AcDbEntity
8
0
100
AcDbCircle
10
141.04999999999995
20
-222.73548427701047
30
0
40
1.4999999999999925
0
ARC
5
179
100
AcDbEntity
8
0
100
AcDbCircle
10
86.050000162795442
20
-222.75719092386186
30
0
40
10.000000000000002
100
AcDbArc
50
100.36352635977607
51
260.12031977900256
0
CIRCLE
5
180
100
AcDbEntity
8
0
100
AcDbCircle
10
126.03190218065437
20
-207.75358209635607
30
0
40
1.4999999999999925
0
CIRCLE
5
181
100
AcDbEntity
8
0
100
AcDbCircle
10
86.050000162795442
20
-222.75719092386186
30
0
40
1.4999999999999951
0
LINE
5
182
100
AcDbEntity
8
0
100
AcDbLine
10
83.767146688773863
20
-232.49313361145755
30
0
11
122.4497066357069
21
-240.38984835911779
31
0
0
ARC
5
183
100
AcDbEntity
8
0
100
AcDbCircle
10
126.04999999999998
20
-222.75358209635607
30
0
40
17.999999999999993
100
AcDbArc
50
-101.53791209777069
51
104.07733654590032
0
CIRCLE
5
184
100
AcDbEntity
8
0
100
AcDbCircle
10
126.04999999999998
20
-222.75358209635607
30
0
40
6.0000000000000062
0
CIRCLE
5
185
100
AcDbEntity
8
0
100
AcDbCircle
10
111.04999999999998
20
-222.77167991570164
30
0
40
1.4999999999999925
0
LWPOLYLINE
5
186
100
AcDbEntity
8
0
100
AcDbPolyline
90
4
70
1
43
0.0
10
138.84779076577439
20
-310.05561249643
10
168.84779076577439
20
-310.05561249643
10
168.84779076577439
20
-370.55561249643
10
138.84779076577439
20
-370.55561249643
0
LWPOLYLINE
5
187
100
AcDbEntity
8
0
100
AcDbPolyline
90
12
70
1
43
0.0
10
154.59779076577428
20
-320.05561249643
10
163.84779076577439
20
-320.05561249643
10
163.84779076577439
20
-360.55561249643
10
154.59779076577439
20
-360.55561249643
10
154.59779076577439
20
-363.55561249642926
10
153.09779076577442
20
-363.55561249642926
10
153.09779076577442
20
-360.55561249643
10
143.84779076577439
20
-360.55561249643
10
143.84779076577439
20
-320.05561249643
10
153.09779076577428
20
-320.05561249643
10
153.09779076577428
20
-317.05561249643029
10
154.59779076577428
20
-317.05561249643029
0
CIRCLE
5
188
100
AcDbEntity
8
0
100
AcDbCircle
10
158.84779076577439
20
-364.55561249643006
30
0
40
1.5000000000000002
0
CIRCLE
5
189
100
AcDbEntity
8
0
100
AcDbCircle
10
148.84779076577439
20
-364.55561249643006
30
0
40
1.4999999999999996
0
CIRCLE
5
190
100
AcDbEntity
8
0
100
AcDbCircle
10
148.84779076577439
20
-316.05561249643006
30
0
40
1.5000000000000002
0
LINE
5
191
100
AcDbEntity
8
0
100
AcDbLine
10
154.59779076577428
20
-317.05561249643029
30
0
11
153.09779076577428
21
-323.05561249643029
31
0
0
LINE
5
192
100
AcDbEntity
8
0
100
AcDbLine
10
153.09779076577442
20
-363.55561249642926
30
0
11
154.59779076577439
21
-357.55561249642926
31
0
0
CIRCLE
5
193
100
AcDbEntity
8
0
100
AcDbCircle
10
158.84779076577439
20
-316.05561249643006
30
0
40
1.5000000000000004
0
LINE
5
194
100
AcDbEntity
8
0
100
AcDbLine
10
153.09779076577428
20
-317.05561249643029
30
0
11
154.59779076577428
21
-323.05561249643029
31
0
0
CIRCLE
5
195
100
AcDbEntity
8
0
100
AcDbCircle
10
76.741325539293399
20
-254.67254050650467
30
0
40
1.5000000000000002
0
CIRCLE
5
196
100
AcDbEntity
8
0
100
AcDbCircle
10
76.741325539293399
20
-254.67254050650467
30
0
40
10
0
CIRCLE
5
197
100
AcDbEntity
8
0
100
AcDbCircle
10
101.18988942791788
20
-254.67254050650467
30
0
40
1.5000000000000002
0
CIRCLE
5
198
100
AcDbEntity
8
0
100
AcDbCircle
10
101.18988942791788
20
-254.67254050650467
30
0
40
10
0
CIRCLE
5
199
100
AcDbEntity
8
0
100
AcDbCircle
10
125.63845331654235
20
-254.67254050650462
30
0
40
1.5000000000000002
0
CIRCLE
5
200
100
AcDbEntity
8
0
100
AcDbCircle
10
125.63845331654235
20
-254.67254050650462
30
0
40
10
0
CIRCLE
5
201
100
AcDbEntity
8
0
100
AcDbCircle
10
76.741325539293399
20
-279.12110439512912
30
0
40
1.5000000000000002
0
CIRCLE
5
202
100
AcDbEntity
8
0
100
AcDbCircle
10
76.741325539293399
20
-279.12110439512912
30
0
40
10
0
ENDSEC
0
SECTION
2
OBJECTS
0
DICTIONARY
5
C
100
AcDbDictionary
3
ACAD_GROUP
350
D
3
ACAD_MLINESTYLE
350
17
0
DICTIONARY
5
D
100
AcDbDictionary
0
DICTIONARY
5
1A
330
C
100
AcDbDictionary
0
DICTIONARY
5
17
100
AcDbDictionary
0
ENDSEC
0
EOF
