0
SECTION
2
HEADER
9
$INSUNITS
70
4
9
$ACADVER
1
AC1014
9
$HANDSEED
5
FFFF
0
ENDSEC
0
SECTION
2
TABLES
0
TABLE
2
VPORT
5
8
100
AcDbSymbolTable
0
ENDTAB
0
TABLE
2
LTYPE
5
5
100
AcDbSymbolTable
0
LTYPE
5
14
100
AcDbSymbolTableRecord
100
AcDbLinetypeTableRecord
2
BYBLOCK
70
0
0
LTYPE
5
15
100
AcDbSymbolTableRecord
100
AcDbLinetypeTableRecord
2
BYLAYER
70
0
0
ENDTAB
0
TABLE
2
LAYER
5
2
100
AcDbSymbolTable
70
2
0
LAYER
5
50
100
AcDbSymbolTableRecord
100
AcDbLayerTableRecord
2
0
70
0
6
CONTINUOUS
0
ENDTAB
0
TABLE
2
STYLE
5
3
100
AcDbSymbolTable
70
1
0
STYLE
5
11
100
AcDbSymbolTableRecord
100
AcDbTextStyleTableRecord
2
STANDARD
70
0
0
ENDTAB
0
TABLE
2
VIEW
5
6
100
AcDbSymbolTable
70
0
0
ENDTAB
0
TABLE
2
UCS
5
7
100
AcDbSymbolTable
70
0
0
ENDTAB
0
TABLE
2
APPID
5
9
100
AcDbSymbolTable
70
2
0
APPID
5
12
100
AcDbSymbolTableRecord
100
AcDbRegAppTableRecord
2
ACAD
70
0
0
ENDTAB
0
TABLE
2
DIMSTYLE
5
A
100
AcDbSymbolTable
70
1
0
ENDTAB
0
TABLE
2
BLOCK_RECORD
5
1
100
AcDbSymbolTable
70
1
0
BLOCK_RECORD
5
1F
100
AcDbSymbolTableRecord
100
AcDbBlockTableRecord
2
*MODEL_SPACE
0
BLOCK_RECORD
5
1B
100
AcDbSymbolTableRecord
100
AcDbBlockTableRecord
2
*PAPER_SPACE
0
ENDTAB
0
ENDSEC
0
SECTION
2
BLOCKS
0
BLOCK
5
20
100
AcDbEntity
100
AcDbBlockBegin
2
*MODEL_SPACE
0
ENDBLK
5
21
100
AcDbEntity
100
AcDbBlockEnd
0
BLOCK
5
1C
100
AcDbEntity
100
AcDbBlockBegin
2
*PAPER_SPACE
0
ENDBLK
5
1D
100
AcDbEntity
100
AcDbBlockEnd
0
ENDSEC
0
SECTION
2
ENTITIES
0
CIRCLE
5
100
100
AcDbEntity
8
0
100
AcDbCircle
10
0
20
0
30
0
40
1.5000000000000002
0
LWPOLYLINE
5
101
100
AcDbEntity
8
0
100
AcDbPolyline
90
10
70
1
43
0.0
10
101.04810222009284
20
24.901677407710242
10
79.010504493307749
20
18.996720893696228
42
-0.41421356237309431
10
76.561014750524578
20
20.410934456069306
10
76.535132846014335
20
20.507527038698157
42
0.00030774921034648926
10
76.50983016330791
20
20.601725980649739
42
-0.41457415896697691
10
77.923405051289478
20
23.053593433837452
10
99.961015814225476
20
28.958553440877569
42
-0.41393209757453187
10
102.41000717506111
20
27.546196296474903
42
-0.00024026914298335865
10
102.43643387795571
20
27.447759733122226
10
102.46231578246594
20
27.351167150493382
42
-0.4142135623731012
0
LINE
5
102
100
AcDbEntity
8
0
100
AcDbLine
10
101.87282830777713
20
29.470822054604469
30
0
11
101.89291388324037
21
29.476203968329358
31
0
0
LWPOLYLINE
5
103
100
AcDbEntity
8
0
100
AcDbPolyline
90
2
70
1
43
0.0
10
28.741854958634953
20
107.26606300940098
42
-7.5957541127251433
10
-28.741854958634896
20
107.26606300940102
42
-0.13165249758739581
0
ARC
5
104
100
AcDbEntity
8
0
100
AcDbCircle
10
0
20
0
30
0
40
17.500000000000004
100
AcDbArc
50
267.83958840690411
51
272.16041159309583
0
LWPOLYLINE
5
105
100
AcDbEntity
8
0
100
AcDbPolyline
90
9
70
1
43
0.0
10
-0.11274244852439219
20
73.734913807098863
42
-0.04779827124514021
10
13.890655873447187
20
72.414776837365608
42
-0.4355460924589043
10
17.389584227361851
20
66.830663511590913
10
5.1948568457391016
20
21.319321338923459
42
-0.35000111041852866
10
0.67855250195064132
20
17.987205633507848
42
0.018855381794880062
10
-0.67855250195063466
20
17.987205633507848
42
-0.35000111041852933
10
-5.1948568457390953
20
21.319321338923469
10
-17.389584227361826
20
66.830663511590899
42
-0.43554609245890441
10
-13.890655873447166
20
72.414776837365636
42
-0.047032041060979059
0
LWPOLYLINE
5
106
100
AcDbEntity
8
0
100
AcDbPolyline
90
10
70
1
43
0.0
10
-16.02892817645462
20
78.107257579011559
42
-0.39692292687008002
10
-21.280218170939623
20
81.35070706267534
10
-25.638665763565285
20
97.616654920480556
42
-0.42878742141915732
10
-22.240183592307442
20
103.18031175461947
42
-0.052741245142815293
10
-0.16138828835360108
20
105.54987661679375
42
-0.053507914174758218
10
22.240183592307474
20
103.18031175461942
42
-0.4287874214191521
10
25.638665763565314
20
97.616654920480542
10
21.280218170939644
20
81.350707062675326
42
-0.3969229268700829
10
16.028928176454677
20
78.107257579011559
42
0.051028158647493799
10
-0.12191658144830793
20
79.734906793368538
42
0.050261686334086439
0
LWPOLYLINE
5
107
100
AcDbEntity
8
0
100
AcDbPolyline
90
9
70
1
43
0.0
10
-49.182260239126535
20
48.475153457940017
10
-15.865645448081837
20
15.158538666895293
42
-0.35000111041852866
10
-15.238100770737045
20
9.5812465212446725
42
0.018855381794880062
10
-15.916653272687682
20
8.4059591122631865
42
-0.35000111041852938
10
-21.060502293820935
20
6.1607826720281782
10
-66.571844466488372
20
18.355510053650939
42
-0.43554609245890497
10
-69.65836428726314
20
24.177727557050122
42
-0.047032041060978837
10
-63.912679727065793
20
36.769819079042435
42
-0.047798271245140321
10
-55.767708413815981
20
48.237049280315603
42
-0.4355460924589043
0
LWPOLYLINE
5
108
100
AcDbEntity
8
0
100
AcDbPolyline
90
10
70
1
43
0.0
10
-75.657333371585992
20
25.172169793259869
42
-0.050261686334086571
10
-69.113413142165712
20
39.7618705400075
42
-0.051028158647493757
10
-59.628405195131293
20
52.935087785751719
42
0.39692292687008229
10
-59.811669846633144
20
59.104563065446634
10
-71.719170111812716
20
71.012063330626191
42
0.42878742141915172
10
-78.236679353744805
20
70.850719853077848
42
0.053507914174758253
10
-91.489568660633239
20
52.635171950809394
42
0.052741245142815016
10
-100.47686294605225
20
32.32959190154169
42
0.4287874214191571
10
-97.357835875378029
20
26.604591589854415
10
-81.091888017572813
20
22.246143997228742
42
0.39692292687007991
0
LWPOLYLINE
5
109
100
AcDbEntity
8
0
100
AcDbPolyline
90
9
70
1
43
0.0
10
-66.5718444664884
20
-18.355510053650889
10
-21.060502293820946
20
-6.160782672028164
42
-0.35000111041852866
10
-15.916653272687691
20
-8.4059591122631758
42
0.018855381794880062
10
-15.23810077073705
20
-9.5812465212446618
42
-0.35000111041852933
10
-15.86564544808185
20
-15.158538666895286
10
-49.182260239126563
20
-48.475153457939975
42
-0.43554609245890513
10
-55.767708413816017
20
-48.237049280315567
42
-0.047032041060979059
10
-63.799937278541393
20
-36.9650947280564
42
-0.04779827124514021
10
-69.658364287263183
20
-24.177727557050005
42
-0.43554609245890358
0
LWPOLYLINE
5
110
100
AcDbEntity
8
0
100
AcDbPolyline
90
10
70
1
43
0.0
10
-59.628405195131357
20
-52.935087785751669
42
-0.05026168633408646
10
-68.991496560717437
20
-39.973036253361045
42
-0.051028158647493757
10
-75.657333371585992
20
-25.172169793259833
42
0.39692292687008313
10
-81.091888017572828
20
-22.246143997228671
10
-97.357835875378044
20
-26.604591589854337
42
0.42878742141915016
10
-100.47686294605234
20
-32.329591901541562
42
0.053507914174758253
10
-91.328180372279704
20
-52.914704665984324
42
0.05274124514281528
10
-78.236679353744904
20
-70.850719853077749
42
0.42878742141915793
10
-71.719170111812772
20
-71.012063330626148
10
-59.811669846633208
20
-59.104563065446591
42
0.39692292687007991
0
LWPOLYLINE
5
111
100
AcDbEntity
8
0
100
AcDbPolyline
90
9
70
1
43
0.0
10
-17.389584227361858
20
-66.830663511590913
10
-5.1948568457391051
20
-21.319321338923459
42
-0.35000111041852877
10
-0.67855250195064376
20
-17.987205633507848
42
0.018855381794880062
10
0.67855250195063233
20
-17.987205633507848
42
-0.35000111041852933
10
5.1948568457390953
20
-21.319321338923469
10
17.389584227361816
20
-66.830663511590899
42
-0.43554609245890441
10
13.890655873447091
20
-72.414776837365636
42
-0.047032041060978837
10
0.11274244852438331
20
-73.734913807098863
42
-0.04779827124514021
10
-13.890655873447194
20
-72.414776837365608
42
-0.4355460924589043
0
LWPOLYLINE
5
112
100
AcDbEntity
8
0
100
AcDbPolyline
90
10
70
1
43
0.0
10
16.028928176454627
20
-78.107257579011574
42
-0.05026168633408646
10
0.12191658144829587
20
-79.734906793368552
42
-0.051028158647493757
10
-16.028928176454688
20
-78.107257579011559
42
0.39692292687008301
10
-21.280218170939666
20
-81.350707062675326
10
-25.638665763565328
20
-97.616654920480542
42
0.4287874214191521
10
-22.240183592307488
20
-103.18031175461942
42
0.053507914174758253
10
0.16138828835355709
20
-105.54987661679375
42
0.05274124514281528
10
22.240183592307364
20
-103.18031175461945
42
0.42878742141915732
10
25.638665763565257
20
-97.616654920480556
10
21.280218170939612
20
-81.35070706267534
42
0.39692292687007985
0
LWPOLYLINE
5
113
100
AcDbEntity
8
0
100
AcDbPolyline
90
9
70
1
43
0.0
10
49.182260239126521
20
-48.475153457940046
10
15.865645448081832
20
-15.158538666895307
42
-0.3500011104185286
10
15.23810077073704
20
-9.5812465212446831
42
0.018855381794880062
10
15.916653272687677
20
-8.4059591122631971
42
-0.35000111041852933
10
21.060502293820935
20
-6.1607826720281906
10
66.571844466488372
20
-18.355510053650967
42
-0.43554609245890469
10
69.658364287263183
20
-24.177727557050062
42
-0.04703204106097917
10
63.912679727065765
20
-36.769819079042499
42
-0.04779827124514021
10
55.767708413815967
20
-48.237049280315638
42
-0.4355460924589048
0
LWPOLYLINE
5
114
100
AcDbEntity
8
0
100
AcDbPolyline
90
10
70
1
43
0.0
10
75.657333371585963
20
-25.17216979325994
42
-0.05026168633408646
10
69.113413142165697
20
-39.761870540007571
42
-0.051028158647493646
10
59.628405195131279
20
-52.935087785751762
42
0.39692292687008224
10
59.811669846633123
20
-59.104563065446676
10
71.719170111812673
20
-71.012063330626233
42
0.42878742141915255
10
78.23667935374479
20
-70.850719853077905
42
0.05350791417475799
10
91.489568660633239
20
-52.63517195080945
42
0.052741245142815016
10
100.47686294605226
20
-32.329591901541754
42
0.42878742141915727
10
97.357835875378029
20
-26.604591589854472
10
81.091888017572813
20
-22.246143997228796
42
0.39692292687008007
0
LWPOLYLINE
5
115
100
AcDbEntity
8
0
100
AcDbPolyline
90
9
70
1
43
0.0
10
66.5718444664884
20
18.355510053650853
10
21.060502293820946
20
6.1607826720281533
42
-0.3500011104185286
10
15.916653272687693
20
8.4059591122631669
42
0.018855381794880062
10
15.238100770737052
20
9.5812465212446511
42
-0.35000111041852933
10
15.865645448081853
20
15.15853866689528
10
49.182260239126585
20
48.475153457939939
42
-0.43554609245890469
10
55.767708413816038
20
48.237049280315532
42
-0.047032041060979059
10
63.799937278541421
20
36.965094728056364
42
-0.04779827124514021
10
69.658364287263183
20
24.17772755704997
42
-0.43554609245890424
0
LWPOLYLINE
5
116
100
AcDbEntity
8
0
100
AcDbPolyline
90
10
70
1
43
0.0
10
71.719170111812801
20
71.012063330626091
10
59.811669846633208
20
59.104563065446534
42
0.39692292687008407
10
59.628405195131378
20
52.935087785751648
42
-0.050261686334086349
10
68.991496560717522
20
39.973036253360931
42
-0.013513830338468053
10
71.050309422085178
20
36.187342483608241
42
0.35416447004607077
10
76.22485769981769
20
33.882979409174439
10
92.767309602049153
20
38.315516037208091
42
0.46616347144543963
10
95.681909475989301
20
44.562032034329178
42
0.022321017824259094
10
91.328180372279746
20
52.914704665984189
42
0.05274124514281555
10
78.23667935374489
20
70.850719853077734
42
0.42878742141915932
0
ENDSEC
0
SECTION
2
OBJECTS
0
DICTIONARY
5
C
100
AcDbDictionary
3
ACAD_GROUP
350
D
3
ACAD_MLINESTYLE
350
17
0
DICTIONARY
5
D
100
AcDbDictionary
0
DICTIONARY
5
1A
330
C
100
AcDbDictionary
0
DICTIONARY
5
17
100
AcDbDictionary
0
ENDSEC
0
EOF
