0
SECTION
2
HEADER
9
$INSUNITS
70
4
9
$ACADVER
1
AC1014
9
$HANDSEED
5
FFFF
0
ENDSEC
0
SECTION
2
TABLES
0
TABLE
2
VPORT
5
8
100
AcDbSymbolTable
0
ENDTAB
0
TABLE
2
LTYPE
5
5
100
AcDbSymbolTable
0
LTYPE
5
14
100
AcDbSymbolTableRecord
100
AcDbLinetypeTableRecord
2
BYBLOCK
70
0
0
LTYPE
5
15
100
AcDbSymbolTableRecord
100
AcDbLinetypeTableRecord
2
BYLAYER
70
0
0
ENDTAB
0
TABLE
2
LAYER
5
2
100
AcDbSymbolTable
70
2
0
LAYER
5
50
100
AcDbSymbolTableRecord
100
AcDbLayerTableRecord
2
0
70
0
6
CONTINUOUS
0
ENDTAB
0
TABLE
2
STYLE
5
3
100
AcDbSymbolTable
70
1
0
STYLE
5
11
100
AcDbSymbolTableRecord
100
AcDbTextStyleTableRecord
2
STANDARD
70
0
0
ENDTAB
0
TABLE
2
VIEW
5
6
100
AcDbSymbolTable
70
0
0
ENDTAB
0
TABLE
2
UCS
5
7
100
AcDbSymbolTable
70
0
0
ENDTAB
0
TABLE
2
APPID
5
9
100
AcDbSymbolTable
70
2
0
APPID
5
12
100
AcDbSymbolTableRecord
100
AcDbRegAppTableRecord
2
ACAD
70
0
0
ENDTAB
0
TABLE
2
DIMSTYLE
5
A
100
AcDbSymbolTable
70
1
0
ENDTAB
0
TABLE
2
BLOCK_RECORD
5
1
100
AcDbSymbolTable
70
1
0
BLOCK_RECORD
5
1F
100
AcDbSymbolTableRecord
100
AcDbBlockTableRecord
2
*MODEL_SPACE
0
BLOCK_RECORD
5
1B
100
AcDbSymbolTableRecord
100
AcDbBlockTableRecord
2
*PAPER_SPACE
0
ENDTAB
0
ENDSEC
0
SECTION
2
BLOCKS
0
BLOCK
5
20
100
AcDbEntity
100
AcDbBlockBegin
2
*MODEL_SPACE
0
ENDBLK
5
21
100
AcDbEntity
100
AcDbBlockEnd
0
BLOCK
5
1C
100
AcDbEntity
100
AcDbBlockBegin
2
*PAPER_SPACE
0
ENDBLK
5
1D
100
AcDbEntity
100
AcDbBlockEnd
0
ENDSEC
0
SECTION
2
ENTITIES
0
CIRCLE
5
100
100
AcDbEntity
8
0
100
AcDbCircle
10
0
20
0
30
0
40
1.5000000000000002
0
LINE
5
101
100
AcDbEntity
8
0
100
AcDbLine
10
0
20
0
30
0
11
130.31794546796496
21
0
31
0
0
LWPOLYLINE
5
102
100
AcDbEntity
8
0
100
AcDbPolyline
90
10
70
1
43
0.0
10
101.04810222009284
20
24.901677407710242
10
79.010504493307749
20
18.996720893696228
42
-0.41421356237309431
10
76.561014750524578
20
20.410934456069306
10
76.535132846014335
20
20.507527038698157
42
0.00030774921034648926
10
76.50983016330791
20
20.601725980649739
42
-0.41457415896697691
10
77.923405051289478
20
23.053593433837452
10
99.961015814225476
20
28.958553440877569
42
-0.41393209757453187
10
102.41000717506111
20
27.546196296474903
42
-0.00024026914298335865
10
102.43643387795571
20
27.447759733122226
10
102.46231578246594
20
27.351167150493382
42
-0.4142135623731012
0
LINE
5
103
100
AcDbEntity
8
0
100
AcDbLine
10
101.87282830777713
20
29.470822054604469
30
0
11
101.89291388324037
21
29.476203968329358
31
0
0
LWPOLYLINE
5
104
100
AcDbEntity
8
0
100
AcDbPolyline
90
10
70
1
43
0.0
10
-0.16215279943050831
20
106.04987603231621
42
-0.053507914174757996
10
22.34553737531224
20
103.66908632475025
42
-0.4287874214191531
10
26.12162867670985
20
97.487245397929286
10
21.763181084084188
20
81.221297540124056
42
-0.39692292687008263
10
15.928414423545323
20
77.61746478049767
42
0.051028158647493799
10
-0.12115207037131344
20
79.234907377846056
42
0.050261686334086293
10
-15.928414423545274
20
77.617464780497656
42
-0.39692292687007963
10
-21.763181084084152
20
81.22129754012407
10
-26.1216286767098
20
97.4872453979293
42
-0.42878742141915394
10
-22.345537375312205
20
103.66908632475025
42
-0.052741245142815515
0
LWPOLYLINE
5
105
100
AcDbEntity
8
0
100
AcDbPolyline
90
9
70
1
43
0.0
10
-0.11350695960132162
20
74.234913222621344
42
-0.047798271245139981
10
13.984848969490089
20
72.90582435101156
42
-0.4355460924589048
10
17.872547140506384
20
66.701253989039643
10
5.6778197588836399
20
21.189911816372206
42
-0.35000111041852905
10
0.65970382134090122
20
17.487561032577077
42
0.018855381794879323
10
-0.659703821340894
20
17.487561032577077
42
-0.35000111041852949
10
-5.677819758883631
20
21.189911816372202
10
-17.872547140506356
20
66.701253989039643
42
-0.43554609245890408
10
-13.984848969490107
20
72.90582435101156
42
-0.04703204106097917
0
LWPOLYLINE
5
106
100
AcDbEntity
8
0
100
AcDbPolyline
90
2
70
1
43
0.0
10
28.741854958634953
20
107.26606300940098
42
-7.5957541127251433
10
-28.741854958634896
20
107.26606300940102
42
-0.13165249758739581
0
LWPOLYLINE
5
107
100
AcDbEntity
8
0
100
AcDbPolyline
90
10
70
1
43
0.0
10
-97.487245397929286
20
26.121628676709875
10
-81.221297540124056
20
21.763181084084209
42
0.39692292687008146
10
-75.182903489027552
20
25.014320857452187
42
-0.050261686334086349
10
-68.680018690907389
20
39.512532918260433
42
-0.051028158647493646
10
-59.254489065482268
20
52.603143923045543
42
0.39692292687008524
10
-59.458116456039853
20
59.458116456039889
10
-71.365616721219439
20
71.365616721219482
42
0.42878742141915693
10
-78.607293656699554
20
71.18634619061018
42
0.053507914174757858
10
-91.922963111891519
20
52.884509572556553
42
0.052741245142815418
10
-100.95283103201176
20
32.482740134140116
42
0.42878742141915799
0
LWPOLYLINE
5
108
100
AcDbEntity
8
0
100
AcDbPolyline
90
9
70
1
43
0.0
10
-70.130720456567161
20
24.341677699838815
42
-0.047032041060978837
10
-64.346074178324116
20
37.019156700789566
42
-0.04779827124514021
10
-56.145871487077102
20
48.564146651172855
42
-0.43554609245890286
10
-48.828706848533244
20
48.828706848533272
10
-15.512092057488566
20
15.512092057488577
42
-0.35000111041852866
10
-14.814820193772126
20
9.3151007845434268
42
0.018855381794879323
10
-15.474524015113021
20
8.1724602480336603
42
-0.35000111041852938
10
-21.189911816372202
20
5.6778197588836488
10
-66.701253989039614
20
17.872547140506406
42
-0.43554609245890408
0
LWPOLYLINE
5
109
100
AcDbEntity
8
0
100
AcDbPolyline
90
10
70
1
43
0.0
10
-71.365616721219496
20
-71.365616721219411
10
-59.458116456039917
20
-59.458116456039846
42
0.39692292687008324
10
-59.254489065482318
20
-52.603143923045451
42
-0.050261686334086349
10
-68.558866620536122
20
-39.722374459585616
42
-0.051028158647493646
10
-75.182903489027581
20
-25.014320857452081
42
0.3969229268700834
10
-81.221297540124056
20
-21.763181084084131
10
-97.4872453979293
20
-26.12162867670979
42
0.42878742141915338
10
-100.95283103201182
20
-32.482740134140016
42
0.05350791417475799
10
-91.760810312461075
20
-53.165366459759625
42
0.052741245142815418
10
-78.607293656699611
20
-71.186346190610124
42
0.42878742141915538
0
LWPOLYLINE
5
110
100
AcDbEntity
8
0
100
AcDbPolyline
90
9
70
1
43
0.0
10
-56.145871487077166
20
-48.564146651172742
42
-0.047032041060978837
10
-64.23256721872275
20
-37.215756521831771
42
-0.04779827124514021
10
-70.130720456567218
20
-24.341677699838691
42
-0.43554609245890286
10
-66.701253989039657
20
-17.872547140506345
10
-21.189911816372209
20
-5.6778197588836292
42
-0.35000111041852822
10
-15.474524015113039
20
-8.1724602480336372
42
0.018855381794878955
10
-14.814820193772142
20
-9.3151007845434179
42
-0.35000111041853038
10
-15.51209205748858
20
-15.512092057488562
10
-48.828706848533294
20
-48.82870684853323
42
-0.43554609245890202
0
LWPOLYLINE
5
111
100
AcDbEntity
8
0
100
AcDbPolyline
90
10
70
1
43
0.0
10
26.121628676709797
20
-97.4872453979293
10
21.763181084084138
20
-81.221297540124056
42
0.39692292687008457
10
15.928414423545272
20
-77.617464780497656
42
-0.05026168633408646
10
0.1211520703712865
20
-79.234907377846071
42
-0.051028158647493646
10
-15.928414423545313
20
-77.617464780497656
42
0.39692292687008224
10
-21.763181084084199
20
-81.221297540124056
10
-26.121628676709861
20
-97.487245397929286
42
0.42878742141915266
10
-22.345537375312254
20
-103.66908632475028
42
0.05350791417475799
10
0.16215279943045491
20
-106.04987603231619
42
0.05274124514281555
10
22.345537375312212
20
-103.66908632475025
42
0.42878742141915288
0
LWPOLYLINE
5
112
100
AcDbEntity
8
0
100
AcDbPolyline
90
9
70
1
43
0.0
10
13.984848969490065
20
-72.90582435101156
42
-0.047032041060979059
10
0.11350695960134827
20
-74.234913222621344
42
-0.04779827124514021
10
-13.984848969490129
20
-72.905824351011546
42
-0.43554609245890424
10
-17.872547140506395
20
-66.701253989039643
10
-5.6778197588836434
20
-21.189911816372209
42
-0.35000111041852827
10
-0.65970382134091032
20
-17.48756103257708
42
0.018855381794880062
10
0.65970382134088901
20
-17.487561032577077
42
-0.35000111041853055
10
5.677819758883631
20
-21.189911816372209
10
17.872547140506349
20
-66.701253989039643
42
-0.43554609245890419
0
LWPOLYLINE
5
113
100
AcDbEntity
8
0
100
AcDbPolyline
90
10
70
1
43
0.0
10
97.487245397929286
20
-26.121628676709932
10
81.221297540124041
20
-21.763181084084252
42
0.39692292687008379
10
75.182903489027552
20
-25.014320857452233
42
-0.050261686334086349
10
68.680018690907332
20
-39.512532918260455
42
-0.051028158647493757
10
59.25448906548219
20
-52.603143923045586
42
0.39692292687007924
10
59.458116456039832
20
-59.458116456039932
10
71.365616721219411
20
-71.365616721219538
42
0.42878742141915849
10
78.607293656699525
20
-71.186346190610223
42
0.05350791417475799
10
91.922963111891519
20
-52.884509572556617
42
0.05274124514281528
10
100.95283103201174
20
-32.482740134140229
42
0.4287874214191576
0
LWPOLYLINE
5
114
100
AcDbEntity
8
0
100
AcDbPolyline
90
9
70
1
43
0.0
10
70.130720456567204
20
-24.341677699838804
42
-0.047032041060979059
10
64.346074178324088
20
-37.019156700789608
42
-0.04779827124514021
10
56.145871487077073
20
-48.564146651172905
42
-0.43554609245890175
10
48.828706848533237
20
-48.828706848533329
10
15.512092057488561
20
-15.512092057488584
42
-0.35000111041852816
10
14.814820193772116
20
-9.315100784543441
42
0.018855381794880062
10
15.474524015113014
20
-8.1724602480336745
42
-0.35000111041852849
10
21.189911816372202
20
-5.6778197588836594
10
66.701253989039628
20
-17.872547140506441
42
-0.43554609245890491
0
LWPOLYLINE
5
115
100
AcDbEntity
8
0
100
AcDbPolyline
90
10
70
1
43
0.0
10
71.365616721219538
20
71.365616721219368
10
59.458116456039932
20
59.458116456039811
42
0.39692292687008351
10
59.254489065482332
20
52.603143923045465
42
-0.05026168633408646
10
68.558866620536179
20
39.722374459585538
42
-0.013513830338468053
10
70.604769135999476
20
35.960419912067458
42
0.35416447004607093
10
76.354267222368946
20
33.400016496029906
10
92.896719124600423
20
37.832553124063558
42
0.46616347144543918
10
96.135163428978373
20
44.773126454198106
42
0.022321017824258473
10
91.760810312461103
20
53.165366459759582
42
0.05274124514281528
10
78.607293656699625
20
71.186346190610067
42
0.42878742141915926
0
LWPOLYLINE
5
116
100
AcDbEntity
8
0
100
AcDbPolyline
90
9
70
1
43
0.0
10
56.145871487077166
20
48.564146651172777
42
-0.047032041060979059
10
64.232567218722778
20
37.2157565218317
42
-0.047798271245139981
10
70.130720456567204
20
24.341677699838684
42
-0.43554609245890463
10
66.701253989039657
20
17.872547140506313
10
21.189911816372216
20
5.6778197588836266
42
-0.35000111041852883
10
15.474524015113031
20
8.1724602480336443
42
0.018855381794880062
10
14.814820193772139
20
9.3151007845434108
42
-0.35000111041852916
10
15.512092057488589
20
15.512092057488553
10
48.828706848533315
20
48.828706848533216
42
-0.43554609245890497
0
LINE
5
117
100
AcDbEntity
8
0
100
AcDbLine
10
0
20
0
30
0
11
1.4488887394336025
21
0.388228567653781
31
0
0
LINE
5
118
100
AcDbEntity
8
0
100
AcDbLine
10
21.189911816372216
20
5.6778197588836257
30
0
11
71.705503714569005
21
19.213431813185629
31
0
0
ENDSEC
0
SECTION
2
OBJECTS
0
DICTIONARY
5
C
100
AcDbDictionary
3
ACAD_GROUP
350
D
3
ACAD_MLINESTYLE
350
17
0
DICTIONARY
5
D
100
AcDbDictionary
0
DICTIONARY
5
1A
330
C
100
AcDbDictionary
0
DICTIONARY
5
17
100
AcDbDictionary
0
ENDSEC
0
EOF
